<svg width="151" height="55" viewBox="0 0 151 55" fill="none" xmlns="http://www.w3.org/2000/svg">
<g clip-path="url(#clip0_180_1401)">
<path d="M117.281 17.1141C117.07 17.7596 116.75 18.3232 116.319 18.8049C115.885 19.2867 115.331 19.6599 114.657 19.9226C113.981 20.1854 113.179 20.3168 112.247 20.3168C111.538 20.3168 110.963 20.2844 110.52 20.2178C110.077 20.1511 109.79 20.0864 109.657 20.0216V14.1722C109.657 12.925 109.977 11.8835 110.62 11.0514C111.263 10.2193 112.226 9.80422 113.51 9.80422C114.794 9.80422 115.797 10.2688 116.517 11.1999C117.235 12.131 117.597 13.363 117.597 14.8958C117.597 15.6631 117.491 16.4667 117.281 17.1141ZM120.038 8.22572C119.318 7.52692 118.487 6.99377 117.547 6.63389C116.606 6.27211 115.604 6.09122 114.54 6.09122C113.764 6.09122 113.082 6.18453 112.497 6.37113C111.91 6.55583 111.411 6.7767 111.003 7.02804C110.593 7.27938 110.277 7.51549 110.056 7.73446C109.834 7.95344 109.702 8.09624 109.657 8.16098V0.394149L105.006 1.72321V23.4052C105.139 23.4262 105.399 23.4643 105.787 23.5195C106.174 23.5747 106.656 23.6242 107.231 23.668C107.807 23.7118 108.46 23.7556 109.191 23.7994C109.923 23.8432 110.687 23.8641 111.484 23.8641C115.092 23.8641 117.813 23.0377 119.64 21.385C121.467 19.7303 122.379 17.3388 122.379 14.4026C122.379 13.0679 122.17 11.8797 121.748 10.8382C121.328 9.79851 120.758 8.92834 120.038 8.22572ZM96.2209 15.7831C96.2209 17.0322 95.8994 18.0718 95.2583 18.9039C94.6152 19.736 93.6526 20.153 92.3665 20.153C91.0843 20.153 90.0812 19.6884 89.3612 18.7573C88.6431 17.8262 88.2811 16.5943 88.2811 15.0615C88.2811 14.2941 88.387 13.4887 88.5988 12.8432C88.8086 12.1977 89.1282 11.6341 89.5614 11.1523C89.9927 10.6687 90.5471 10.2974 91.2229 10.0346C91.8987 9.77186 92.6996 9.64047 93.6314 9.64047C94.3399 9.64047 94.9156 9.67284 95.3584 9.73948C95.8012 9.80422 96.088 9.87087 96.2209 9.93561V15.7831ZM98.614 6.83002C97.9709 6.64341 97.1854 6.47395 96.2555 6.31972C95.3237 6.16739 94.261 6.09122 93.0654 6.09122C91.581 6.09122 90.2526 6.31591 89.0801 6.76337C87.9057 7.21274 86.9026 7.843 86.0728 8.65415C85.2431 9.46339 84.6058 10.444 84.163 11.5941C83.7202 12.7442 83.4988 14.1722 83.4988 15.5527C83.4988 16.9103 83.7086 18.1099 84.1303 19.1496C84.55 20.1911 85.1141 21.0613 85.8245 21.762C86.533 22.4627 87.3628 22.9882 88.3158 23.3386C89.2668 23.6889 90.2757 23.8641 91.3384 23.8641C92.0912 23.8641 92.7612 23.7708 93.3484 23.5842C93.9356 23.3995 94.4323 23.1863 94.8443 22.9444C95.2525 22.7045 95.574 22.4684 95.807 22.238C96.038 22.0095 96.1766 21.861 96.2209 21.7944V23.4052L100.872 23.4033V7.76684C100.761 7.70019 100.518 7.57452 100.141 7.38792C99.7653 7.20322 99.2551 7.01662 98.614 6.83002ZM83.4429 6.74053C82.9751 6.49871 82.2993 6.29116 81.329 6.13693C80.7745 6.04934 80.1873 6.00745 79.5674 6.00745C78.5489 6.00745 77.6075 6.10075 76.745 6.28545C75.8805 6.47205 75.122 6.6796 74.4693 6.90999C73.8147 7.14039 73.2891 7.36507 72.8906 7.58404C72.4921 7.80302 72.2476 7.94582 72.1609 8.01056V23.4052H76.8104V10.5411C77.0106 10.4307 77.3649 10.2841 77.8751 10.0975C78.3834 9.91086 79.1034 9.81756 80.0333 9.81756C80.3433 9.81756 80.6706 9.8404 81.0133 9.8842C81.356 9.92799 81.6313 9.96417 81.9759 10.0632C82.0048 10.0727 82.0298 10.0784 82.0568 10.0879C82.5381 8.93405 82.9847 7.85442 83.3967 6.85287C83.4121 6.81478 83.4276 6.77861 83.4429 6.74053ZM146.349 15.7831C146.349 17.0322 146.027 18.0718 145.386 18.9039C144.743 19.736 143.781 20.153 142.494 20.153C141.212 20.153 140.209 19.6884 139.489 18.7573C138.771 17.8262 138.409 16.5943 138.409 15.0615C138.409 14.2941 138.515 13.4887 138.725 12.8432C138.937 12.1977 139.256 11.6341 139.689 11.1523C140.121 10.6687 140.675 10.2974 141.349 10.0346C142.025 9.77186 142.828 9.64048 143.759 9.64048C144.466 9.64048 145.044 9.67285 145.486 9.73949C145.929 9.80423 146.216 9.87087 146.349 9.93561V15.7831ZM150.269 7.38792C149.893 7.20322 149.383 7.01662 148.742 6.83002C148.099 6.64342 147.313 6.47395 146.382 6.31972C145.452 6.16739 144.389 6.09123 143.193 6.09123C141.709 6.09123 140.381 6.31591 139.206 6.76337C138.032 7.21274 137.031 7.843 136.201 8.65415C135.369 9.46339 134.734 10.444 134.291 11.5941C133.848 12.7442 133.627 14.1722 133.627 15.5527C133.627 16.9103 133.837 18.1099 134.256 19.1496C134.678 20.1911 135.242 21.0613 135.952 21.762C136.661 22.4627 137.491 22.9882 138.444 23.3386C139.395 23.6889 140.404 23.8641 141.466 23.8641C142.219 23.8641 142.889 23.7708 143.476 23.5842C144.062 23.3995 144.56 23.1863 144.97 22.9444C145.38 22.7045 145.702 22.4684 145.935 22.238C146.166 22.0095 146.305 21.861 146.349 21.7944V23.4052L151 23.4033V7.76684C150.889 7.7002 150.644 7.57452 150.269 7.38792ZM128.067 5.57843e-06C127.356 5.57843e-06 126.748 0.241827 126.24 0.723565C125.729 1.2053 125.473 1.79557 125.473 2.49628C125.473 3.19699 125.729 3.79488 126.24 4.28804C126.748 4.7793 127.356 5.02684 128.067 5.02684C128.796 5.02684 129.416 4.7793 129.924 4.28804C130.435 3.79488 130.689 3.19699 130.689 2.49628C130.689 1.79557 130.435 1.2053 129.924 0.723565C129.416 0.241827 128.796 5.57843e-06 128.067 5.57843e-06ZM125.756 23.4033H130.408V6.09123L125.756 7.41839V23.4033ZM53.7766 14.0047C54.1771 12.9384 54.5852 11.8626 54.9972 10.7848C55.4073 9.70521 55.7866 8.71317 56.1312 7.80872C56.4778 6.90237 56.7839 6.1255 57.0515 5.4762C57.3172 4.8269 57.5078 4.38515 57.6194 4.15285C57.7311 4.38515 57.9198 4.8269 58.1874 5.4762C58.455 6.1255 58.7611 6.90237 59.1057 7.80872C59.4504 8.71317 59.8296 9.70521 60.2416 10.7848C60.6536 11.8626 61.0599 12.9384 61.4603 14.0047H53.7766ZM66.672 14.8044C66.1156 13.3668 65.5592 11.9806 65.0028 10.6439C64.4445 9.30916 63.9324 8.0753 63.4645 6.93855C62.9967 5.7999 62.5751 4.80786 62.1958 3.96053C61.8184 3.11321 61.5162 2.4582 61.2928 1.9936C60.8038 0.902544 60.5901 0.41319 60.5901 0.41319H54.6468C54.6468 0.41319 54.4331 0.902544 53.9441 1.9936C53.7208 2.4582 53.4204 3.11321 53.0431 3.96053C52.6638 4.80786 52.2403 5.7999 51.7724 6.93855C51.3065 8.0753 50.7925 9.30916 50.2361 10.6439C49.6797 11.9806 49.1233 13.3668 48.5649 14.8044C48.0085 16.2439 47.4521 17.6948 46.8957 19.1572C46.3393 20.6195 45.8157 22.0343 45.3267 23.4033H50.2361L52.1401 18.3213H63.0968L65.0028 23.4033H69.9122C69.4232 22.0343 68.8995 20.6195 68.3412 19.1572C67.7848 17.6948 67.2284 16.2439 66.672 14.8044ZM29.4683 0C28.7598 0 28.1495 0.241821 27.6412 0.723559C27.131 1.2053 26.8769 1.79557 26.8769 2.49628C26.8769 3.19699 27.131 3.79488 27.6412 4.28804C28.1495 4.7793 28.7598 5.02683 29.4683 5.02683C30.198 5.02683 30.8179 4.7793 31.3281 4.28804C31.8364 3.79488 32.0924 3.19699 32.0924 2.49628C32.0924 1.79557 31.8364 1.2053 31.3281 0.723559C30.8179 0.241821 30.198 0 29.4683 0ZM27.1599 23.4033H31.8094V6.09122L27.1599 7.41838V23.4033ZM8.45024 14.0047C8.85261 12.9384 9.25884 11.8626 9.67085 10.7848C10.0829 9.70521 10.4621 8.71317 10.8068 7.80872C11.1514 6.90237 11.4594 6.1255 11.727 5.4762C11.9927 4.8269 12.1833 4.38515 12.2931 4.15285C12.4066 4.38515 12.5953 4.8269 12.861 5.4762C13.1305 6.1255 13.4367 6.90237 13.7813 7.80872C14.1259 8.71317 14.5052 9.70521 14.9153 10.7848C15.3292 11.8626 15.7354 12.9384 16.1359 14.0047H8.45024ZM21.3475 14.8044C20.7911 13.3668 20.2328 11.9806 19.6764 10.6439C19.12 9.30916 18.6079 8.0753 18.1401 6.93855C17.6722 5.7999 17.2487 4.80786 16.8694 3.96053C16.492 3.11321 16.1917 2.4582 15.9684 1.9936C15.4774 0.902544 15.2657 0.41319 15.2657 0.41319H9.32238C9.32238 0.41319 9.10867 0.902544 8.61966 1.9936C8.39633 2.4582 8.09599 3.11321 7.71671 3.96053C7.33936 4.80786 6.9158 5.7999 6.44797 6.93855C5.98013 8.0753 5.46801 9.30916 4.91161 10.6439C4.35521 11.9806 3.79688 13.3668 3.24048 14.8044C2.68408 16.2439 2.12768 17.6948 1.56936 19.1572C1.01296 20.6195 0.489288 22.0343 0.00219727 23.4033H4.91161L6.81569 18.3213H17.7723L19.6764 23.4033H24.5858C24.0968 22.0343 23.5731 20.6195 23.0167 19.1572C22.4603 17.6948 21.9039 16.2439 21.3475 14.8044ZM46.0833 10.0879C46.5627 8.93405 47.0113 7.85442 47.4233 6.85287C47.4386 6.81478 47.4541 6.77861 47.4694 6.74052C47.0016 6.4987 46.3258 6.29115 45.3555 6.13692C44.801 6.04933 44.2138 6.00744 43.5939 6.00744C42.5754 6.00744 41.634 6.10074 40.7715 6.28544C39.907 6.47204 39.1485 6.67959 38.4958 6.90999C37.8412 7.14038 37.3156 7.36507 36.9171 7.58404C36.5186 7.80301 36.2741 7.94582 36.1874 8.01056V23.4052H40.8369V10.5411C41.0372 10.4307 41.3895 10.2841 41.9016 10.0975C42.4099 9.91085 43.1299 9.81755 44.0598 9.81755C44.3698 9.81755 44.6951 9.8404 45.0398 9.8842C45.3825 9.92799 45.6578 9.96417 46.0024 10.0632C46.0313 10.0727 46.0563 10.0784 46.0833 10.0879Z" fill="white"/>
<path d="M89.7691 42.61C89.7691 43.6668 89.4976 44.5465 88.9547 45.251C88.4098 45.9555 87.5955 46.3078 86.5096 46.3078C85.4218 46.3078 84.5747 45.9137 83.9644 45.1273C83.356 44.339 83.0518 43.2955 83.0518 41.9988C83.0518 41.3495 83.1404 40.6698 83.3195 40.1233C83.4966 39.5768 83.768 39.0989 84.1338 38.6914C84.4996 38.2839 84.9675 37.9697 85.5393 37.747C86.1111 37.5242 86.7888 37.4118 87.5781 37.4118C88.1769 37.4118 88.664 37.4404 89.0394 37.4956C89.4129 37.5508 89.6574 37.608 89.7691 37.6632V42.61ZM115.464 34.5557L111.521 35.681V46.0508H106.898C106.388 46.0508 105.976 45.9803 105.664 45.8394C105.35 45.6985 105.115 45.4948 104.956 45.2225C104.794 44.9521 104.69 44.6189 104.642 44.2266C104.596 43.8344 104.57 43.3774 104.57 42.8519V34.5557L100.656 35.6734V42.8519C100.656 43.3774 100.629 43.8344 100.572 44.2266C100.514 44.6189 100.406 44.9521 100.244 45.2225C100.085 45.4948 99.8516 45.6985 99.5513 45.8394C99.2471 45.9803 98.8409 46.0508 98.3307 46.0508H93.7062V35.8238C93.6119 35.7686 93.4059 35.662 93.0863 35.5039C92.7667 35.3478 92.3374 35.1898 91.7944 35.0317C91.2496 34.8737 90.5854 34.7309 89.798 34.6014C89.0105 34.4719 88.1114 34.4053 87.0987 34.4053C85.8415 34.4053 84.7191 34.5957 83.7238 34.9765C82.7303 35.3573 81.8832 35.8905 81.1805 36.5759C80.4778 37.2614 79.9387 38.0916 79.5633 39.0646C79.1878 40.0376 79.0011 41.2467 79.0011 42.4158C79.0011 43.5659 79.1801 44.5808 79.5363 45.4605C79.8906 46.3402 80.37 47.0771 80.9687 47.6711C81.5694 48.2633 82.2721 48.7089 83.0788 49.0059C83.8836 49.3011 84.7364 49.4496 85.6355 49.4496C86.2728 49.4496 86.8407 49.3715 87.3375 49.2135C87.8342 49.0573 88.2558 48.8764 88.6024 48.6708C88.9489 48.4671 89.2223 48.269 89.4167 48.0748C89.615 47.8787 89.7325 47.753 89.7691 47.6978V49.362H93.7062V49.36L99.1817 49.362C99.919 49.362 100.61 49.2306 101.253 48.9678C101.894 48.707 102.406 48.2024 102.784 47.4522C103.163 48.2024 103.639 48.707 104.216 48.9678C104.794 49.2306 105.45 49.362 106.188 49.362H115.464V34.5557ZM102.82 50.7082C102.214 50.7082 101.694 50.9138 101.259 51.3251C100.824 51.7364 100.606 52.241 100.606 52.8389C100.606 53.4387 100.824 53.9471 101.259 54.3679C101.694 54.7887 102.214 55 102.82 55C103.444 55 103.972 54.7887 104.407 54.3679C104.842 53.9471 105.059 53.4387 105.059 52.8389C105.059 52.241 104.842 51.7364 104.407 51.3251C103.972 50.9138 103.444 50.7082 102.82 50.7082ZM51.235 46.1993C49.7525 46.6315 47.5924 46.2088 47.4288 46.1326V38.0821C47.4288 38.0821 48.9882 36.9891 50.8981 37.349C52.8079 37.7089 54.1537 39.2131 54.1537 41.9398C54.1537 44.101 53.1314 45.6471 51.235 46.1993ZM71.0863 46.0508H68.4468C67.9366 46.0508 67.5265 45.9803 67.2147 45.8394C66.9028 45.6985 66.666 45.4948 66.5062 45.2225C66.3444 44.9521 66.2405 44.6189 66.1923 44.2266C66.1442 43.8344 66.123 43.3774 66.123 42.8519V29.2413L62.1782 30.3686V42.8519C62.1782 43.3774 62.1551 43.8344 62.1089 44.2266C62.0607 44.6189 61.9568 44.9521 61.7951 45.2225C61.6353 45.4948 61.4042 45.6985 61.102 45.8394C60.7978 45.9803 60.3915 46.0508 59.8813 46.0508H57.2553C57.8733 44.9064 58.2064 43.4802 58.2064 41.8294C58.2064 37.5166 55.7132 34.8565 52.1264 34.4548C50.0644 34.2244 48.0391 34.9346 47.4268 35.1745L47.4288 29.2413L43.4878 30.3419V46.0508H41.8417C41.3315 46.0508 40.9195 45.9803 40.6095 45.8394C40.2957 45.6985 40.0589 45.4948 39.8991 45.2225C39.7393 44.9521 39.6334 44.6189 39.5872 44.2266C39.5391 43.8344 39.516 43.3774 39.516 42.8519V34.5557L35.6019 35.6734V42.8519C35.6019 43.3774 35.5731 43.8344 35.5153 44.2266C35.4614 44.6189 35.3517 44.9521 35.1899 45.2225C35.0282 45.4948 34.7972 45.6985 34.4949 45.8394C34.1926 45.9803 33.7864 46.0508 33.2762 46.0508H28.6518V34.5595L24.7107 35.6848C24.7107 35.6887 24.7088 35.6905 24.7088 35.6943V49.2363C24.7088 50.0779 24.5047 50.6625 24.0985 50.99C23.6922 51.3175 23.1397 51.4813 22.4408 51.4813C21.9845 51.4813 21.5706 51.4241 21.1913 51.3137C20.814 51.1994 20.5752 51.1252 20.4828 51.089L19.5452 53.6976C19.5837 53.7148 19.707 53.7681 19.9149 53.8519C20.1228 53.9356 20.3885 54.0213 20.71 54.1051C21.0296 54.1889 21.3993 54.2632 21.8151 54.3279C22.231 54.3926 22.6661 54.4269 23.1204 54.4269C23.8578 54.4269 24.5625 54.3374 25.2344 54.1603C25.9044 53.9813 26.4896 53.6748 26.9941 53.233C27.4927 52.7951 27.8951 52.2143 28.1973 51.4965C28.4977 50.7844 28.6459 49.8856 28.6498 48.8022V49.362H34.1271C34.8645 49.362 35.5538 49.2306 36.1968 48.9678C36.8398 48.707 37.352 48.2024 37.7293 47.4522C38.1067 48.2024 38.5841 48.707 39.1617 48.9678C39.7393 49.2306 40.3958 49.362 41.1332 49.362H60.7323C61.4697 49.362 62.1589 49.2306 62.8039 48.9678C63.4469 48.707 63.9571 48.2024 64.3345 47.4522C64.7118 48.2024 65.1912 48.707 65.7669 48.9678C66.3444 49.2306 67.001 49.362 67.7383 49.362H75.0293V29.2413L71.0863 30.3667V46.0508ZM96.9079 50.7082C96.3015 50.7082 95.7817 50.9138 95.3465 51.3251C94.9114 51.7364 94.6939 52.241 94.6939 52.8389C94.6939 53.4387 94.9114 53.9471 95.3465 54.3679C95.7817 54.7887 96.3015 55 96.9079 55C97.5317 55 98.0612 54.7887 98.4943 54.3679C98.9314 53.9471 99.1489 53.4387 99.1489 52.8389C99.1489 52.241 98.9314 51.7364 98.4943 51.3251C98.0612 50.9138 97.5317 50.7082 96.9079 50.7082ZM108.758 50.7082C108.134 50.7082 107.605 50.9176 107.171 51.3384C106.736 51.7612 106.517 52.2696 106.517 52.8674C106.517 53.4672 106.736 53.9699 107.171 54.3831C107.605 54.7944 108.134 55 108.758 55C109.364 55 109.884 54.7944 110.319 54.3831C110.754 53.9699 110.972 53.4672 110.972 52.8674C110.972 52.2696 110.754 51.7612 110.319 51.3384C109.884 50.9176 109.364 50.7082 108.758 50.7082ZM147.028 30.3762V49.3886H151V29.2413L147.028 30.3762ZM140.063 44.1981C140.063 45.0416 139.859 45.6242 139.452 45.9517C139.046 46.2792 138.492 46.443 137.793 46.443H130.914C130.744 46.3154 130.583 46.1764 130.431 46.0165C130.061 45.6261 129.768 45.1349 129.553 44.5446C129.333 43.9543 129.225 43.2689 129.225 42.4882C129.225 40.9858 129.612 39.8281 130.388 39.017C131.164 38.2059 132.158 37.8022 133.367 37.8022C133.915 37.8022 134.406 37.8707 134.841 38.0116C135.269 38.1487 135.635 38.3106 135.943 38.4972L137.479 35.5477C137.198 35.3288 136.701 35.0831 135.991 34.8127C135.282 34.5424 134.264 34.4053 132.943 34.4053C131.863 34.4053 130.856 34.5919 129.92 34.9632C128.983 35.3345 128.166 35.8695 127.466 36.5702C126.767 37.2709 126.214 38.1164 125.806 39.1084C125.4 40.0985 125.198 41.2258 125.198 42.4882C125.198 43.7887 125.4 44.9407 125.806 45.9422C125.877 46.1155 125.958 46.2792 126.037 46.443H122.385V34.5595L118.442 35.6848V49.2363C118.442 50.0779 118.24 50.6625 117.832 50.99C117.425 51.3175 116.873 51.4813 116.172 51.4813C115.72 51.4813 115.304 51.4241 114.925 51.3137C114.547 51.1994 114.31 51.1252 114.216 51.089L113.28 53.6976C113.317 53.7148 113.44 53.7681 113.648 53.8519C113.856 53.9356 114.12 54.0213 114.443 54.1051C114.765 54.1889 115.132 54.2632 115.548 54.3279C115.964 54.3926 116.399 54.4269 116.854 54.4269C117.591 54.4269 118.296 54.3374 118.966 54.1603C119.639 53.9813 120.225 53.6748 120.725 53.233C121.226 52.7951 121.628 52.2143 121.931 51.4965C122.233 50.7767 122.385 49.8685 122.385 48.7698V49.3886H138.474C139.212 49.3886 139.914 49.2992 140.588 49.1221C141.258 48.945 141.849 48.6346 142.359 48.1967C142.872 47.7568 143.278 47.1761 143.58 46.4563C143.882 45.7366 144.034 44.8245 144.034 43.722V29.2413L140.063 30.3762V44.1981ZM89.6786 32.9734C90.3024 32.9734 90.8318 32.762 91.265 32.3412C91.702 31.9204 91.9196 31.412 91.9196 30.8122C91.9196 30.2143 91.702 29.7097 91.265 29.2985C90.8318 28.8853 90.3024 28.6796 89.6786 28.6796C89.074 28.6796 88.5523 28.8853 88.1172 29.2985C87.6821 29.7097 87.4645 30.2143 87.4645 30.8122C87.4645 31.412 87.6821 31.9204 88.1172 32.3412C88.5523 32.762 89.074 32.9734 89.6786 32.9734ZM7.39107 33.3409C8.01485 33.3409 8.54238 33.1314 8.97748 32.7106C9.41452 32.2879 9.63207 31.7795 9.63207 31.1816C9.63207 30.5818 9.41452 30.0772 8.97748 29.666C8.54238 29.2547 8.01485 29.049 7.39107 29.049C6.78461 29.049 6.26479 29.2547 5.82969 29.666C5.3965 30.0772 5.17702 30.5818 5.17702 31.1816C5.17702 31.7795 5.3965 32.2879 5.82969 32.7106C6.26479 33.1314 6.78461 33.3409 7.39107 33.3409ZM83.7661 32.9734C84.3918 32.9734 84.9193 32.762 85.3544 32.3412C85.7896 31.9204 86.0071 31.412 86.0071 30.8122C86.0071 30.2143 85.7896 29.7097 85.3544 29.2985C84.9193 28.8853 84.3918 28.6796 83.7661 28.6796C83.1616 28.6796 82.6398 28.8853 82.2066 29.2985C81.7715 29.7097 81.5521 30.2143 81.5521 30.8122C81.5521 31.412 81.7715 31.9204 82.2066 32.3412C82.6398 32.762 83.1616 32.9734 83.7661 32.9734ZM10.8796 40.9649C10.8796 43.4593 10.8796 46.2773 7.41225 46.2773C3.94293 46.2773 3.94293 43.4593 3.94293 40.9649V37.648L0 38.7714V40.8069C0 40.9325 0.0019227 41.0563 0.00384488 41.1801C0.034649 42.6081 0.234876 43.8363 0.608376 44.8626C1.01268 45.9746 1.5556 46.8809 2.23715 47.5836C2.91869 48.2843 3.71574 48.7946 4.62447 49.1126C5.53511 49.4305 6.49582 49.5886 7.50658 49.5886C8.44996 49.5886 9.35868 49.4496 10.2366 49.1697C11.1087 48.8879 11.8904 48.4156 12.5719 47.7511C13.2535 47.0866 13.7983 46.2088 14.2007 45.1139C14.605 44.0191 14.8091 42.6595 14.8091 41.0315V34.5595L10.8796 35.6772L10.8796 40.9649ZM37.7293 50.7082C37.1248 50.7082 36.605 50.9138 36.1698 51.3251C35.7347 51.7364 35.5172 52.241 35.5172 52.8389C35.5172 53.4387 35.7347 53.9471 36.1698 54.3679C36.605 54.7887 37.1248 55 37.7293 55C38.355 55 38.8825 54.7887 39.3176 54.3679C39.7528 53.9471 39.9703 53.4387 39.9703 52.8389C39.9703 52.241 39.7528 51.7364 39.3176 51.3251C38.8825 50.9138 38.355 50.7082 37.7293 50.7082ZM21.7285 29.2166L17.7855 30.3419V49.3601H21.7285V29.2166ZM31.8188 50.7082C31.2123 50.7082 30.6925 50.9138 30.2574 51.3251C29.8223 51.7364 29.6047 52.241 29.6047 52.8389C29.6047 53.4387 29.8223 53.9471 30.2574 54.3679C30.6925 54.7887 31.2123 55 31.8188 55C32.4425 55 32.972 54.7887 33.4052 54.3679C33.8403 53.9471 34.0598 53.4387 34.0598 52.8389C34.0598 52.241 33.8403 51.7364 33.4052 51.3251C32.972 50.9138 32.4425 50.7082 31.8188 50.7082Z" fill="white"/>
</g>
<defs>
<clipPath id="clip0_180_1401">
<rect width="151" height="55" fill="white"/>
</clipPath>
</defs>
</svg>
