<svg width="140" height="140" viewBox="0 0 140 140" fill="none" xmlns="http://www.w3.org/2000/svg">
<g clip-path="url(#clip0_237_383)">
<path fill-rule="evenodd" clip-rule="evenodd" d="M64.4701 0.270201C41.1388 2.16694 20.348 15.4981 8.83252 35.9446C-0.839754 53.1184 -2.67523 74.1481 3.85564 92.9699C7.31973 102.953 12.4348 111.189 19.9674 118.911C41.0009 140.474 73.4511 146.129 100.589 132.961C115.232 125.856 127.399 113.326 133.884 98.6732C144.559 74.5502 141.104 47.2508 124.737 26.4189C120.895 21.528 113.237 14.6098 107.902 11.2095C101.951 7.41719 94.5816 4.17344 88.0534 2.47297C83.0938 1.18084 79.7975 0.629326 74.7684 0.24962C70.2977 -0.0880281 68.8378 -0.0850452 64.4701 0.270201ZM98.3776 48.6604C100.284 49.6659 101.415 51.4147 101.573 53.6005C101.815 56.9361 102.456 56.1626 84.5075 74.1621C75.457 83.238 67.5148 90.9747 66.8581 91.3541C65.2618 92.277 63.7675 92.5013 62.0284 92.0792C60.6828 91.7526 59.8983 91.0436 49.8956 81.1081C44.014 75.266 39.0081 70.1193 38.7717 69.671C38.1344 68.4635 37.9461 66.4723 38.3332 65.0358C39.3054 61.4278 43.7453 59.435 47.1375 61.0839C47.8906 61.4496 51.2394 64.563 55.9596 69.2853L63.5684 76.897L77.6008 62.8926C86.4137 54.0974 92.0222 48.721 92.6783 48.4388C94.2989 47.742 96.823 47.8401 98.3776 48.6604Z" fill="#018677"/>
</g>
<defs>
<clipPath id="clip0_237_383">
<rect width="140" height="140" fill="white"/>
</clipPath>
</defs>
</svg>
