<svg width="23" height="23" viewBox="0 0 23 23" fill="none" xmlns="http://www.w3.org/2000/svg">
<path fill-rule="evenodd" clip-rule="evenodd" d="M22.5866 19.9275C21.8767 22.085 19.0952 23.1609 17.108 22.9815C14.394 22.7362 11.4407 21.2967 9.19899 19.7112C5.90384 17.3805 2.81721 13.7753 1.0186 9.94957C-0.252546 7.24628 -0.537751 3.9226 1.35286 1.45852C2.05207 0.54771 2.80954 0.0612684 3.94422 0.00453461C5.5205 -0.0721327 5.7413 0.82963 6.28257 2.23417C6.68584 3.28452 7.22405 4.35594 7.52458 5.44462C8.08732 7.4763 6.12003 7.56122 5.87163 9.22183C5.7183 10.2691 6.98638 11.6736 7.55985 12.4203C8.66521 13.8746 10.019 15.1218 11.5588 16.1047C12.4328 16.6551 13.8404 17.6471 14.8402 17.0997C16.3797 16.2564 16.2355 13.6605 18.3868 14.5391C19.5015 14.993 20.581 15.648 21.6452 16.2215C23.2904 17.1062 23.2138 18.0231 22.5866 19.9275C23.0558 18.5046 22.1174 21.3505 22.5866 19.9275Z" fill="#111111"/>
</svg>
