<svg width="40" height="40" viewBox="0 0 40 40" fill="none" xmlns="http://www.w3.org/2000/svg">
<rect width="40" height="40" rx="20" fill="#29AAEC"/>
<g clip-path="url(#clip0_211_377)">
<path d="M20 8.375C13.371 8.375 8 13.5781 8 20C8 26.4219 13.371 31.625 20 31.625C26.629 31.625 32 26.4219 32 20C32 13.5781 26.629 8.375 20 8.375ZM25.8935 16.3391L23.9242 25.3297C23.779 25.9672 23.3871 26.1219 22.8403 25.8219L19.8403 23.6797L18.3935 25.0297C18.2339 25.1844 18.0984 25.3156 17.7887 25.3156L18.0016 22.3578L23.5613 17.4922C23.8032 17.2859 23.5081 17.1687 23.1887 17.375L16.3177 21.5656L13.3565 20.6703C12.7129 20.4734 12.6984 20.0469 13.4919 19.7469L25.0613 15.425C25.5984 15.2375 26.0677 15.5516 25.8935 16.3391Z" fill="white"/>
</g>
<defs>
<clipPath id="clip0_211_377">
<rect width="24" height="24" fill="white" transform="translate(8 8)"/>
</clipPath>
</defs>
</svg>
