<svg width="194" height="49" viewBox="0 0 194 49" fill="none" xmlns="http://www.w3.org/2000/svg">
<g clip-path="url(#clip0_180_1396)">
<path d="M25.1516 44.771C35.8989 44.771 44.6113 36.0241 44.6113 25.2342C44.6113 14.4443 35.8989 5.69739 25.1516 5.69739C14.4043 5.69739 5.69189 14.4443 5.69189 25.2342C5.69189 36.0241 14.4043 44.771 25.1516 44.771Z" stroke="white" stroke-width="6"/>
<path d="M38.2632 29.8205C37.6106 30.5948 37.0173 31.0118 35.9494 31.1905H24.2024C23.6091 30.8927 23.5498 30.4757 24.2024 30.1779H30.8472C31.4405 30.1779 31.9744 29.9992 32.3897 29.4631C34.3476 26.8423 36.602 24.3407 38.3226 21.4816C37.5513 22.1964 37.0767 22.6133 35.9494 22.792H27.8214C26.9909 22.792 26.3382 23.0898 25.8043 23.8046C24.2024 25.8893 22.5412 27.9145 20.9394 29.9992C16.7271 35.0621 13.82 23.9237 19.5155 25.7106C18.7442 24.6981 17.9136 23.745 17.1424 22.7325C16.5491 22.1368 15.6591 22.0773 15.0659 22.7325C11.5062 27.2593 11.4468 34.2282 18.8629 34.8834H34.6442C35.8308 33.1561 37.0767 31.4883 38.2632 29.8205ZM35.8308 15.6444C35.2968 16.0614 34.9408 16.24 34.1103 16.24H26.9315C26.2196 16.24 25.3297 16.5379 24.855 17.1335L20.2868 22.9707L21.592 24.6385C22.1259 23.9833 22.6599 23.3281 23.1938 22.6729C23.7278 22.0773 24.3211 21.839 25.1517 21.839H29.6013C31.8558 21.839 34.7629 16.9548 35.8308 15.6444Z" fill="white"/>
<path fill-rule="evenodd" clip-rule="evenodd" d="M182.253 19.5757L179.524 29.5824H175.608L180.117 13.1429H184.092L187.355 23.09L190.084 13.1429H194L189.432 29.5824H185.516L182.253 19.5757ZM166.472 23.7451H170.328L170.091 17.8484L166.472 23.7451ZM173.295 13.1429L174.6 29.5824H170.506L170.328 26.5446H164.929L163.09 29.5824H158.996L169.32 13.1429H173.295ZM155.377 16.3593H150.69L151.58 13.1429H164.811L163.921 16.3593H159.293L155.615 29.5824H151.758L155.377 16.3593ZM138.884 24.2812C138.884 26.1277 139.833 27.3785 141.91 27.0211C144.817 26.4255 144.58 22.8517 141.139 22.4943C138.232 22.1369 136.748 19.7544 137.46 16.9549C138.706 14.2746 140.783 13.1429 143.808 12.7855H143.868C146.122 12.309 149.504 12.9046 149.86 15.7636C149.919 16.2402 150.038 17.1932 149.741 17.6697H146.063C146.063 16.8358 145.885 16.0615 145.054 15.8232C142.325 15.0489 138.884 18.2653 144.639 19.7544C146.122 20.1118 148.139 20.6478 148.555 22.3156C149.148 25.2342 147.427 27.9742 145.114 29.2845C142.978 30.178 139.893 30.2376 137.698 29.8206C134.968 28.8676 134.434 27.1403 134.909 24.2812H138.884ZM136.155 13.1429C134.612 18.6227 133.129 24.1025 131.646 29.5824H127.73L132.239 13.1429H136.155ZM118.001 19.5757L125.535 13.1429H130.282L122.213 19.9331L126.307 29.5824H121.501L118.831 22.6134L116.695 24.4003L115.212 29.5824H111.356L115.924 13.1429H119.78L118.001 19.5757ZM103.05 19.6948H110.762L109.932 22.673H102.279L101.27 26.3659H110.051L109.22 29.5824H96.4644L100.973 13.1429H113.551L112.661 16.3593H103.999L103.05 19.6948ZM88.3364 16.1806L87.3871 19.6948H90.3535C91.4215 19.6948 92.43 19.2183 92.8453 17.9675C93.0826 17.1932 92.9047 16.5975 92.1334 16.2997C91.1248 16.0019 89.4636 16.1806 88.3364 16.1806ZM86.5565 22.5539L85.4886 26.6042C87.6838 26.6042 90.8282 27.2594 91.6588 24.5195C91.8961 23.0899 90.8875 22.5539 89.6416 22.5539H86.5565ZM93.32 13.1429C95.3371 13.1429 97.5323 13.9172 97.117 16.3593C96.8203 18.2653 95.1591 20.0522 93.4386 20.7074V20.8265C95.9304 20.8265 95.9304 24.1025 95.3371 25.7703C94.4472 28.3911 91.6588 29.5824 89.0483 29.5824H80.7424L85.2513 13.1429H93.32ZM76.9453 16.4188H69.47L70.4192 13.1429H82.6409L81.8696 16.1806L71.0718 26.3064H79.5558L78.7252 29.5824H65.4356L66.3849 26.1277L76.9453 16.4188ZM58.4942 13.1429C57.6043 16.3593 56.6551 19.5757 55.7651 22.7326C55.4092 24.4003 55.4685 27.1998 57.901 26.8424C59.8588 26.6042 61.4013 24.579 61.8166 22.7326C62.6472 19.5757 63.4778 16.3593 64.3677 13.1429H68.2241C67.0375 17.491 66.3849 23.3878 63.5965 27.1998C61.6386 29.1059 59.8588 29.9397 56.9517 29.9397C52.2648 29.9397 51.1375 27.7955 51.7308 23.3282C52.6207 19.9331 53.57 16.538 54.5192 13.1429H58.4942Z" fill="white"/>
<path fill-rule="evenodd" clip-rule="evenodd" d="M162.022 40.8994L159.352 46.0218H156.742L156.504 37.6829H159.174L159.056 42.8054L161.666 37.6829H164.099L163.861 42.8054L166.531 37.6829H169.319L164.454 46.0218H161.785L162.022 40.8994ZM156.267 37.5042L155.733 39.4698H155.615C154.784 39.4698 154.606 39.4103 153.835 39.7081C152.707 40.3633 152.174 41.2567 151.818 42.6267L150.928 46.0218H147.961L150.69 37.6829H153.063L152.707 38.8146C153.716 37.8616 154.962 37.5042 156.267 37.5042ZM146.597 36.4917L147.071 34.5261H149.682L149.148 36.4917H146.597ZM148.792 37.6829L146.537 46.0218H143.986L146.3 37.6829H148.792ZM176.557 47.3322C178.219 47.3322 178.1 47.3322 178.99 45.9027L177.744 37.6829H180.77L181.126 42.8649L183.855 37.6829H186.525L181.422 46.4983C180.058 48.7022 178.812 49 176.083 49L176.557 47.3322ZM185.338 43.2819H187.771C187.652 43.818 187.652 44.0562 188.008 44.4732C188.898 45.1879 189.906 44.5923 190.381 43.7584C190.618 42.2693 187.711 42.7458 186.703 41.7332C186.465 41.4354 186.347 41.2567 186.347 40.8398C186.347 40.0059 186.584 39.2316 187.118 38.5764C187.474 38.219 187.889 37.9807 188.364 37.8021C189.135 37.5042 189.906 37.4447 190.678 37.4447C191.212 37.4447 191.627 37.4447 192.161 37.5042C193.644 37.7425 193.644 38.8146 193.644 39.9463H191.33L191.39 39.7081C191.39 38.9338 190.796 38.9338 190.262 38.9338C189.55 38.9338 189.016 39.2316 188.898 40.0059C188.898 40.3633 189.076 40.542 189.372 40.6611C191.508 41.0185 193.763 41.4354 192.873 43.818C192.457 44.8305 191.686 45.5453 190.678 45.9622C190.025 46.2005 189.194 46.2601 188.482 46.2601C187.889 46.2601 187.296 46.2601 186.703 46.0814C186.169 45.8431 185.813 45.6049 185.457 45.1879C185.101 44.4732 185.041 44.1158 185.16 43.2819H185.338ZM140.842 42.1502C139.774 42.1502 137.935 42.5671 137.579 43.6988C137.341 44.1753 137.757 44.5327 138.172 44.7114C139.952 44.7114 140.249 43.4606 140.842 42.1502ZM136.274 40.3037C136.274 38.3977 138.765 37.6829 140.367 37.4447C141.91 37.4447 143.037 37.3851 143.808 38.7551C143.868 39.172 143.927 39.4103 143.868 39.8272C143.571 41.3163 142.028 44.5923 142.622 45.9622V46.0218H140.011V45.307C134.731 49.1191 132.832 42.0906 138.291 41.3759C138.765 41.2567 141.376 41.0185 141.376 40.0059C141.376 38.3381 139.418 38.9933 138.825 39.8868C138.825 40.0059 138.706 40.2442 138.706 40.3037H136.274ZM173.71 42.1502C172.642 42.1502 170.803 42.5671 170.447 43.6988C170.209 44.1753 170.625 44.5327 171.04 44.7114C172.82 44.7114 173.116 43.4606 173.71 42.1502ZM169.141 40.3037C169.141 38.3977 171.633 37.6829 173.235 37.4447C174.778 37.4447 175.905 37.3851 176.676 38.7551C176.735 39.172 176.795 39.4103 176.735 39.8272C176.439 41.3163 174.896 44.5923 175.49 45.9622V46.0218H172.879V45.307C167.599 49.1191 165.7 42.0906 171.159 41.3759C171.633 41.2567 174.244 41.0185 174.244 40.0059C174.244 38.3381 172.286 38.9933 171.693 39.8868C171.693 40.0059 171.574 40.2442 171.574 40.3037H169.141Z" fill="white"/>
</g>
<defs>
<clipPath id="clip0_180_1396">
<rect width="194" height="49" fill="white"/>
</clipPath>
</defs>
</svg>
