<svg width="136" height="93" viewBox="0 0 136 93" fill="none" xmlns="http://www.w3.org/2000/svg">
<path d="M75.7911 5.49244C74.6927 6.91632 74.0824 8.66566 74.0824 10.4557C74.0824 11.0659 74.0824 25.5081 74.0824 26.037C74.0011 27.2168 73.5536 28.3152 72.8213 29.2509C72.4145 29.6577 70.0142 31.8139 69.8108 32.058L71.1533 32.0986C71.6008 31.6918 76.2386 27.5829 76.6861 27.0134C78.0286 25.5488 78.8016 23.6367 78.8016 21.6433C78.8016 20.9924 78.8016 7.28246 78.8016 6.67222C78.7609 5.16698 79.3304 3.66174 80.3882 2.56332C80.9577 1.95308 82.7477 0.447839 83.0732 0.0816988L81.6493 0.0410156C81.3645 0.407156 76.2793 5.00425 75.7911 5.49244Z" fill="white"/>
<path d="M64.3594 62.1624L70.0142 67.085H73.7977C77.4184 67.085 80.9171 65.6611 83.48 63.0981C85.7989 60.7792 86.6533 57.6467 86.6533 54.7176V46.6218C86.6126 44.7911 85.8396 43.0418 84.4564 41.8213C84.2123 41.5772 82.5443 39.9906 82.5443 39.9906V46.215C82.5443 46.215 84.375 48.0864 84.7005 48.4525C86.3685 50.2425 86.3685 53.4971 81.0391 58.6638C80.1034 59.5588 77.4591 62.0811 73.7977 62.0811L64.3594 62.1624Z" fill="white"/>
<path d="M80.1034 28.9249C79.4932 29.5758 78.8829 31.2031 78.8829 32.6677V35.7188H81.9748C83.1953 35.7188 84.7819 34.6204 85.1073 34.0509C85.1073 34.0102 85.1073 30.9997 85.1073 30.9997C85.5548 31.6506 86.1244 32.2609 86.7753 32.749C87.1008 32.3422 89.9485 28.9249 92.3081 28.8842C96.2543 28.8435 95.3593 33.8475 93.7727 35.4341C93.2438 35.9629 90.9249 38.0784 90.1926 38.77C88.3212 40.56 85.1073 39.7057 85.1073 35.1086C85.1073 35.1086 81.69 38.3632 81.1612 38.8107C80.6323 39.2582 78.8829 41.1296 78.8829 41.1296V49.2254C78.8829 53.0902 77.6218 54.392 76.5641 55.5718C76.1572 56.0193 71.8042 60.0062 71.194 60.4537L69.7701 60.4943C69.7701 60.4943 72.3331 58.1754 72.8213 57.6466C73.3908 57.0363 74.0824 55.8159 74.0824 53.7818C74.0824 53.2529 74.0011 41.0889 74.0011 41.0889H54.1481C47.2321 41.0889 45.7676 33.4406 45.7269 31.3658C45.7269 30.7556 45.7269 24.6533 45.7269 23.6769C45.7269 22.4157 44.9132 20.3003 43.6521 19.6494H45.6048C45.8489 19.7307 47.0694 20.2189 47.0694 24.938C47.0694 24.938 46.988 30.3895 46.988 30.7149C46.988 33.1152 48.9001 35.8409 51.6258 35.8409L74.0824 35.8002C74.0824 35.19 74.6927 32.9118 75.7911 31.6913C76.4013 30.9997 81.2425 26.606 81.7714 26.1585H83.1953C82.9919 26.3619 80.6323 28.4367 80.1441 29.0063L80.1034 28.9249ZM87.4669 33.522C88.0365 34.295 88.6874 35.0679 89.379 35.7595C91.8199 37.7123 92.959 35.5968 91.3317 33.4C90.6808 32.5049 88.1992 32.749 87.4669 33.522Z" fill="white"/>
<path d="M63.3828 48.0054C63.3828 49.1038 59.9248 51.9922 59.7214 52.155C59.4773 50.9752 58.5823 49.714 56.0193 47.1104L59.8027 43.3269C62.3657 45.8899 63.3828 46.4594 63.3828 48.0054Z" fill="white"/>
<path d="M69.9734 4.51573C70.7464 5.28869 72.3736 7.32281 71.3973 8.33986C70.5429 9.19419 69.2004 10.5774 69.2004 10.5774C69.1191 10.0892 67.8579 8.86873 67.8579 8.86873C67.8579 8.86873 67.8579 12.5301 67.8579 12.9776C67.8172 14.6456 67.207 15.0931 67.207 15.0931C67.207 15.0931 70.2582 18.1036 70.2582 22.0091C70.2582 23.8805 70.2582 25.6298 70.2582 25.996C70.2988 26.7282 70.0141 27.5012 69.4852 28.0301C69.2004 28.3555 66.3934 31.2033 65.9458 31.5694C65.2949 32.139 64.4813 32.4644 63.627 32.4238H53.0903C51.4223 32.4238 49.7136 31.1219 49.7136 29.8201C49.7136 29.4946 49.7543 25.9146 49.7543 25.9146C50.2832 26.5248 50.8527 27.2571 52.1546 27.2571C53.2123 27.2571 54.27 26.4435 54.5548 26.118C54.8396 25.7926 62.5285 17.8188 62.5285 17.8188C62.5285 17.8188 58.9485 14.4829 56.5889 12.8963C55.4498 12.1233 53.9039 13.0997 53.6598 14.1167C52.9275 17.29 53.6598 22.0905 53.6598 22.0905L50.7714 19.202C49.5916 18.0222 49.6323 15.3779 51.0561 13.9947C51.2596 13.7506 53.4157 11.391 56.1007 11.391H60.291C63.0981 11.391 66.1899 14.1981 66.1899 14.1981C66.434 13.9133 66.5968 13.5879 66.6374 13.2217C66.6374 11.7572 66.5968 7.89236 66.5968 7.89236C64.4813 5.77688 64.1965 3.58004 65.2136 2.56298C67.1256 0.650916 67.8172 0 67.8172 0C67.8172 0 67.7359 2.31889 69.9734 4.51573ZM56.7517 25.6705C55.6939 26.7689 55.5312 27.013 54.5548 27.6233H66.434C69.6479 27.6233 68.997 25.6298 68.4275 24.6128C67.2477 22.538 63.5049 18.7138 63.5049 18.7138C63.5049 18.7138 56.9551 25.4671 56.7517 25.6705Z" fill="white"/>
<path d="M43.2047 36.4919H41.252C41.252 36.4919 43.3268 37.631 43.3268 40.6008V50.0798C43.3268 56.2228 48.412 61.9183 54.5957 61.9183H59.7624C62.8542 61.9183 63.9527 61.186 65.824 59.518C66.5156 58.9078 67.4106 57.8908 67.7361 57.5246C68.7938 56.3041 69.9736 55.3278 69.9736 52.1546V49.0627C69.9736 46.3777 68.4277 45.2793 67.6547 44.5063C67.1666 44.0181 65.8647 42.757 65.8647 42.757V49.1034C65.8647 49.1034 67.1666 50.4866 67.7361 50.9341C70.4211 53.0496 68.3057 56.711 65.7834 56.711C65.2952 56.711 55.1653 56.711 54.433 56.711C50.2834 56.7923 44.6286 53.0902 44.6286 46.8252V41.6992C44.6693 36.4919 43.2047 36.4919 43.2047 36.4919Z" fill="white"/>
<path d="M55.6533 48.0458C55.6533 49.1443 52.1953 52.0327 51.9919 52.1954C51.7478 51.0156 50.8528 49.7545 48.2898 47.1508L52.0732 43.3674C54.5955 45.8897 55.6533 46.4592 55.6533 48.0458Z" fill="white"/>
<path d="M15.9881 90.1517H9.88579C7.97372 90.1517 8.13645 88.5651 7.93304 87.2226V78.5166C7.93304 78.5166 9.27556 78.4759 10.7808 78.4759C12.4488 78.4759 14.5643 78.2318 16.5984 79.3709C15.5406 77.1334 13.2624 75.7502 10.7808 75.8315H7.97372V73.0244C7.97372 73.0244 7.97372 70.5835 7.36349 69.8919H11.391C14.849 69.8919 17.5341 69.8512 20.3411 71.6819C20.3411 71.6819 19.8123 67.0848 13.0997 67.0848H0C0 67.0848 2.27821 69.0376 2.19684 72.9838L2.27821 88.8499C2.27821 92.8367 3.86481 92.9588 3.86481 92.9588H16.7611C19.6902 92.9588 20.7073 90.884 20.7073 89.7449L20.748 88.2396C20.748 88.2396 19.8123 90.1517 15.9881 90.1517Z" fill="white"/>
<path d="M50.324 88.8091V77.7028C50.324 73.3905 46.8254 72.2514 44.181 72.2514C40.723 72.2514 39.6653 75.1398 39.2178 76.1569C38.4448 73.4719 35.7191 72.2514 33.5223 72.2514C29.332 72.2514 28.2743 76.2383 28.2743 76.2383C28.2743 76.2383 28.1929 72.3735 24.8163 72.3735H21.521C21.521 72.3735 23.4331 73.1464 23.4331 76.4824V88.8091C23.4331 92.8773 25.0604 92.9587 25.0604 92.9587H30.5118C29.2099 91.9823 28.437 90.4364 28.437 88.7684V77.8249C28.5183 77.3367 29.332 75.7094 31.6509 75.7094C32.9934 75.7094 34.458 77.0926 34.4173 78.6385V88.8091C34.4173 92.918 36.0446 92.9587 36.0446 92.9587H41.496C40.1942 91.9416 39.4212 90.4364 39.4212 88.7684V77.8249C39.9501 76.2383 41.6587 75.3433 43.286 75.8721C44.5065 76.2789 45.3608 77.3774 45.4015 78.6792C45.4015 78.6792 45.4015 87.9548 45.4015 88.8091C45.4422 92.9587 47.0288 92.918 47.0288 92.918C49.8765 92.918 52.4802 92.918 52.4802 92.918C51.1377 91.9416 50.3647 90.4364 50.324 88.8091Z" fill="white"/>
<path d="M59.8435 88.8092C59.8435 90.4365 60.6164 91.9824 61.9183 92.9588C61.9183 92.9588 59.3146 92.9588 56.4668 92.9588C56.4668 92.9588 54.7989 92.9995 54.7989 88.8499V76.4418C54.7989 73.1872 52.9275 72.3329 52.9275 72.3329H56.2227C57.4025 72.3329 59.8028 72.3329 59.8028 76.93V88.7278L59.8435 88.8092Z" fill="white"/>
<path d="M76.6047 73.9196C76.6047 73.9196 76.0758 72.455 73.8383 72.455C70.421 72.455 69.6073 76.5232 69.6073 76.5232C69.3226 73.3093 68.4682 72.3737 66.068 72.3737H62.7727C62.7727 72.3737 64.6848 73.1466 64.6848 76.4826V88.8093C64.6848 92.8775 66.3121 92.9589 66.3121 92.9589H71.7635C70.4616 91.9825 69.6887 90.4366 69.6887 88.8093V78.6794C69.8107 77.8251 70.2989 77.0521 71.0312 76.6046C72.8619 75.3841 75.2622 75.7503 76.686 77.4183L76.6047 73.9196Z" fill="white"/>
<path d="M101.95 74.6522C103.089 74.6522 104.187 74.937 105.164 75.4658V72.374H100.607V67.6548C99.6308 69.2008 98.3696 70.584 96.9458 71.7638C95.3998 73.0249 92.1453 74.6115 92.1453 74.6115L95.6033 74.6522V88.9723C95.6033 92.9592 97.2712 92.9592 97.2712 92.9592C100.241 92.9592 102.682 92.9592 102.682 92.9592C101.38 92.0235 100.607 90.5183 100.566 88.9317V74.6522C102.031 74.6522 101.055 74.6522 101.95 74.6522Z" fill="white"/>
<path d="M118.467 80.8764C115.415 84.0496 113.015 83.5614 111.103 85.921C111.103 85.921 111.429 89.0942 113.829 90.1926C114.642 90.5588 118.019 91.7792 120.175 88.0365V91.3724C120.175 91.3724 118.792 92.9997 114.358 92.9997C109.028 92.9997 105.367 88.8094 105.367 83.1139C105.367 77.4997 108.337 72.3331 113.992 72.2924C119.484 72.211 122.494 76.6861 118.467 80.8764ZM115.131 79.5745C116.026 77.9066 116.758 73.6756 113.666 73.9197C110.086 74.2045 110.778 83.6834 110.778 83.6834C111.957 82.3816 113.747 82.0968 115.131 79.5745Z" fill="white"/>
<path d="M57.3214 70.7058C58.7046 70.6651 59.7623 69.526 59.7623 68.1835C59.7216 66.8003 58.5825 65.7426 57.24 65.7426C55.8975 65.7832 54.7991 66.8817 54.7991 68.2242C54.7991 69.6074 55.9382 70.7058 57.3214 70.7058Z" fill="white"/>
<path d="M82.2595 90.5998C81.0391 90.5998 80.144 89.2979 80.144 87.9961C80.144 82.8701 84.3343 82.1378 85.4734 80.7953V89.4607C84.9446 89.8675 84.4564 90.5998 82.2595 90.5998ZM85.4734 78.8019C84.2123 80.9987 74.3672 81.4869 75.8724 89.0945C76.4826 92.105 78.4761 93 80.9984 93C83.4393 93 84.9446 91.7389 85.5548 90.5184C85.9209 92.7966 87.1007 92.9593 87.1007 92.9593C89.9485 92.9593 92.5521 92.9593 92.5521 92.9593C91.2503 91.983 90.4367 90.4777 90.4367 88.8504V77.256C90.4367 74.4896 87.3855 72.3334 84.1309 72.3334C82.3002 72.2927 80.5509 72.8216 79.0456 73.8387V77.4187C79.0456 77.4187 80.1847 74.5709 82.9918 74.5709C85.7582 74.5709 85.9616 75.9541 85.9616 76.6457C86.0023 77.378 85.8802 78.151 85.4734 78.8019Z" fill="white"/>
<path d="M130.509 87.3445C130.549 88.8091 129.248 90.7212 126.481 90.7212C123.633 90.7212 122.494 87.8327 122.494 87.8327V91.4941C124.04 92.4705 125.83 92.9587 127.661 92.9587C131.363 92.9587 135.146 90.1516 135.065 86.2054C135.024 84.9036 134.577 83.6424 133.804 82.6254C132.543 80.9574 130.265 79.7776 128.475 78.6792C127.458 78.069 126.929 76.9299 126.929 76.5637C126.888 75.8721 127.254 74.4889 129.98 74.4889C132.665 74.4889 133.845 77.3367 133.845 77.3367V73.8787C132.339 72.821 130.509 72.2514 128.637 72.2514C125.383 72.2514 122.413 74.4076 122.494 77.174C122.535 79.6149 123.552 81.1608 125.545 82.6661C126.44 83.317 127.376 83.8865 128.353 84.4154C129.898 85.2697 130.468 86.3275 130.509 87.3445Z" fill="white"/>
</svg>
