<svg width="166" height="53" viewBox="0 0 166 53" fill="none" xmlns="http://www.w3.org/2000/svg">
<g clip-path="url(#clip0_180_1405)">
<path d="M16.8759 18.9195H9.21028V39.5942C9.21028 41.77 8.80065 43.3217 7.98358 44.2452C7.16442 45.1687 5.81928 45.6314 3.95432 45.6314C3.75059 45.6314 3.55304 45.6136 3.35347 45.6077L0.779541 51.9025C1.91472 52.1097 3.17052 52.2147 4.54272 52.2147C6.96695 52.2147 8.97328 51.8924 10.5638 51.2473C12.1501 50.6065 13.4121 49.7312 14.3456 48.6255C15.2792 47.5219 15.9341 46.2257 16.3104 44.741C16.6867 43.2563 16.8759 41.6732 16.8759 39.9917L16.8759 18.9195Z" fill="white"/>
<path d="M141.901 24.7883C141.048 24.7883 140.206 24.8299 139.373 24.9118C138.535 24.9937 137.741 25.094 136.988 25.2091C136.593 25.2697 136.212 25.335 135.849 25.4039V25.4099C135.624 25.4514 135.402 25.4935 135.179 25.5398C134.622 25.655 134.138 25.7951 133.745 25.9583V32.0458C134.354 31.895 135.743 31.2437 139.302 31.2437C139.57 31.2437 139.849 31.2479 140.142 31.2556C140.599 31.2675 141.148 31.2971 141.787 31.379C142.427 31.4627 142.909 31.553 143.238 31.6533L143.385 31.6949C144.071 31.8854 144.608 32.1745 144.997 32.5659C145.749 33.3261 146.128 33.8287 146.128 35.083V35.6987C144.546 35.5942 142.631 35.4767 141.803 35.4767C140.396 35.4767 139.036 35.6168 137.724 35.8976C136.414 36.176 135.252 36.6326 134.237 37.2587C133.223 37.8849 132.412 38.7267 131.805 39.7821C131.2 40.8375 130.896 42.1253 130.896 43.6415C130.896 45.2246 131.158 46.5606 131.682 47.6495C132.206 48.7384 132.961 49.6222 133.942 50.2964C134.923 50.9728 136.096 51.4607 137.456 51.758C138.813 52.0554 140.329 52.202 142.001 52.202C144.652 52.202 146.914 52.0448 148.781 51.7331C150.646 51.4191 152.105 51.1466 153.153 50.9185V35.4287C153.153 33.8142 152.972 32.3442 152.612 31.027C152.253 29.7056 151.637 28.5853 150.768 27.6618C149.901 26.7362 148.747 26.0284 147.307 25.5321C145.864 25.0383 144.063 24.7883 141.901 24.7883ZM142.491 46.5126C141.146 46.5126 140.09 46.2888 139.323 45.8425C138.554 45.3985 138.167 44.5986 138.167 43.4427C138.167 42.8503 138.298 42.3559 138.562 41.958C138.822 41.5644 139.184 41.2481 139.641 41.0199C139.913 40.884 141.098 40.6637 142.674 40.6637C143.708 40.6637 144.907 40.7581 146.128 41.0323V46.3136C145.735 46.3806 145.209 46.4311 144.554 46.462C143.899 46.4976 143.211 46.5126 142.491 46.5126Z" fill="white"/>
<path d="M103.898 6.47755C103.033 6.41819 102.566 6.34576 102.114 6.34576C101.343 6.34576 100.609 6.37547 99.8939 6.52565C99.1766 6.67879 98.5403 6.92754 97.9852 7.27117C97.4301 7.61249 96.9873 8.07316 96.6546 8.65109C96.324 9.22925 96.1577 9.93269 96.1577 10.7619C96.1577 11.6289 96.3012 12.3597 96.5882 12.9544C96.875 13.5512 97.2867 14.0329 97.8231 14.4035C98.3616 14.7721 99.002 15.0381 99.7463 15.2014C100.489 15.3646 101.2 15.4465 102.114 15.4465C103.564 15.4465 103.888 15.3587 104.909 15.1866C105.93 15.0168 106.726 14.8684 107.3 14.7426V6.93378L103.898 6.47755ZM101.923 12.3326C101.189 12.3326 100.611 12.2109 100.191 11.9663C99.7691 11.7235 99.5591 11.2858 99.5591 10.6533C99.5591 10.3286 99.6298 10.0587 99.7733 9.84297C99.9167 9.62512 100.114 9.45353 100.366 9.32769C100.513 9.25467 101.162 9.13304 102.023 9.13304C102.588 9.13304 103.245 9.18643 103.913 9.33602V12.2237C103.699 12.2594 103.41 12.2866 103.052 12.3056C102.694 12.3234 102.318 12.3326 101.923 12.3326Z" fill="white" fill-opacity="0.5"/>
<path d="M62.9797 25.4905H42.4424V31.6262H53.447C52.5634 32.6816 51.5966 33.8627 50.5508 35.1652C49.4988 36.4677 48.4447 37.8142 47.3802 39.1962C46.3157 40.5846 45.299 41.9625 44.3343 43.3299C43.3676 44.6994 42.5401 45.9768 41.854 47.1641V51.5199H63.225V45.3842H50.7193C51.6715 43.998 52.7298 42.5635 53.8961 41.0788C55.0604 39.5941 56.2185 38.1765 57.3682 36.8216C58.5159 35.4709 59.5907 34.2333 60.5929 33.1109C61.5929 31.9906 62.3871 31.1006 62.9797 30.4389V25.4905Z" fill="white"/>
<path d="M75.9787 24.7982C74.4069 24.7982 72.8767 25.0933 71.386 25.6882C69.8932 26.2806 68.5771 27.1561 67.4294 28.3099C66.2838 29.4658 65.3587 30.9087 64.6539 32.6405C63.9511 34.3744 63.5977 36.3931 63.5977 38.7028C63.5977 40.6168 63.868 42.3989 64.4085 44.049C64.9491 45.697 65.7849 47.1252 66.9138 48.3272C68.0449 49.5333 69.469 50.4799 71.1885 51.173C72.9079 51.8662 74.9308 52.2117 77.2574 52.2117C78.1722 52.2117 79.0911 52.1641 80.008 52.065C80.9249 51.9647 81.7835 51.8431 82.5861 51.6947C83.3907 51.5439 84.1204 51.3699 84.7754 51.1734C85.4282 50.9763 86.7588 50.5389 87.7235 49.9547V43.7102C85.1641 44.7195 83.9021 45.0944 82.1952 45.5069C80.9124 45.8168 79.5817 45.8773 78.2386 45.8773C76.1429 45.8773 74.4734 45.4333 73.2281 44.5413C71.9827 43.6513 71.2799 42.4471 71.1157 40.931H87.7235C87.7547 40.5333 87.788 40.0808 87.8191 39.5699C87.8521 39.057 87.8693 38.5878 87.8693 38.1585C87.8693 33.7715 86.8048 30.4482 84.6758 28.1887C82.5468 25.9292 79.6462 24.7982 75.9787 24.7982ZM71.1159 35.8823C71.2136 35.2562 71.3675 34.6363 71.5816 34.0269C71.7958 33.4155 72.0972 32.8814 72.4923 32.4187C72.8831 31.9581 73.3759 31.5852 73.9663 31.3046C74.5547 31.0262 75.2574 30.8856 76.0787 30.8856C76.929 30.8856 77.6422 31.0322 78.216 31.3296C78.7877 31.627 79.2639 32.006 79.6381 32.4667C80.0165 32.9315 80.2951 33.4572 80.476 34.0498C80.6548 34.6445 80.7608 35.256 80.794 35.8821L71.1159 35.8823Z" fill="white"/>
<path d="M101.829 24.7982C100.257 24.7982 98.7245 25.0933 97.2338 25.6882C95.7431 26.2806 94.425 27.1561 93.2794 28.3099C92.1317 29.4658 91.2086 30.9087 90.5038 32.6405C89.799 34.3744 89.4456 36.3931 89.4456 38.7028C89.4456 40.6168 89.7159 42.3989 90.2585 44.049C90.7991 45.697 91.6328 47.1252 92.7617 48.3272C93.8928 49.5333 95.3169 50.4799 97.0364 51.173C98.7578 51.8662 100.781 52.2117 103.105 52.2117C104.022 52.2117 104.939 52.1641 105.858 52.065C106.775 51.9647 107.634 51.8431 108.436 51.6947C109.239 51.5439 109.968 51.3699 110.623 51.1734C111.276 50.9763 112.609 50.5389 113.571 49.9547V43.7102C111.014 44.7195 109.75 45.0944 108.043 45.5069C106.762 45.8168 105.43 45.8773 104.089 45.8773C101.991 45.8773 100.321 45.4333 99.0759 44.5413C97.8326 43.6513 97.1278 42.4471 96.9636 40.931H113.571C113.603 40.5333 113.636 40.0808 113.667 39.5699C113.7 39.057 113.717 38.5878 113.717 38.1585C113.717 33.7715 112.653 30.4482 110.524 28.1887C108.395 25.9292 105.496 24.7982 101.829 24.7982ZM96.9638 35.8823C97.0636 35.2562 97.2174 34.6363 97.4315 34.0269C97.6436 33.4155 97.9472 32.8814 98.3401 32.4187C98.733 31.9581 99.2237 31.5852 99.8142 31.3046C100.405 31.0262 101.107 30.8856 101.927 30.8856C102.777 30.8856 103.49 31.0322 104.064 31.3296C104.636 31.627 105.112 32.006 105.49 32.4667C105.864 32.9315 106.143 33.4572 106.324 34.0498C106.503 34.6445 106.609 35.256 106.642 35.8821L96.9638 35.8823Z" fill="white"/>
<path d="M125.946 24.9462C123.753 24.9462 121.763 25.1534 119.977 25.564C118.191 25.9765 116.644 26.4142 115.333 26.8769V51.5179H122.655V31.6263C122.982 31.5277 123.464 31.4375 124.104 31.3538C124.743 31.2719 125.291 31.2345 125.749 31.2303C125.817 31.2303 125.886 31.2303 125.955 31.2303C128.845 31.2303 131.495 31.8606 132.138 32.0219V25.9344C131.743 25.7712 131.269 25.6305 130.712 25.5159C130.154 25.3984 129.599 25.3004 129.042 25.2185C128.485 25.1366 127.928 25.0695 127.371 25.0197C126.813 24.9722 126.339 24.9462 125.946 24.9462Z" fill="white"/>
<path d="M29.0293 24.7883C28.1769 24.7883 27.3348 24.8299 26.5011 24.9118C25.6632 24.9937 24.869 25.094 24.1164 25.2091C23.7214 25.2697 23.3409 25.335 22.9771 25.4039V25.4099C22.7525 25.4514 22.53 25.4918 22.3076 25.5398C21.7504 25.655 21.266 25.7951 20.873 25.9583V32.0458C21.4822 31.895 22.871 31.2437 26.4304 31.2437C26.6986 31.2437 26.9772 31.2459 27.2704 31.2556C27.7278 31.2675 28.2767 31.2971 28.9149 31.379C29.5553 31.4627 30.0377 31.553 30.3641 31.6533L30.5138 31.6949C31.1978 31.8854 31.7363 32.1745 32.1251 32.5659C32.8777 33.3261 33.254 33.8287 33.254 35.083V35.6987C31.6739 35.5942 29.7591 35.4767 28.9316 35.4767C27.524 35.4767 26.1643 35.6168 24.8524 35.8976C23.5425 36.176 22.3804 36.6326 21.3637 37.2587C20.3512 37.8849 19.5382 38.7267 18.9332 39.7821C18.3282 40.8375 18.0247 42.1253 18.0247 43.6415C18.0247 45.2246 18.2866 46.5606 18.8105 47.6495C19.3345 48.7384 20.0871 49.6201 21.0705 50.2964C22.0539 50.9728 23.2245 51.4607 24.5842 51.758C25.9419 52.0554 27.4575 52.202 29.1291 52.202C31.78 52.202 34.042 52.0448 35.909 51.7331C37.774 51.4191 39.2335 51.1466 40.2814 50.9164V35.4287C40.2814 33.8142 40.1005 32.3442 39.7408 31.027C39.3791 29.7056 38.7657 28.5853 37.8987 27.6597C37.0297 26.7362 35.8758 26.0284 34.435 25.5321C32.9921 25.0383 31.1915 24.7883 29.0293 24.7883ZM29.6198 46.5105C28.2746 46.5105 27.2184 46.2885 26.4512 45.8425C25.682 45.3985 25.2953 44.5986 25.2953 43.4427C25.2953 42.8503 25.4262 42.3538 25.6903 41.958C25.9522 41.5644 26.312 41.2481 26.7694 41.0199C27.0396 40.884 28.2268 40.6637 29.8028 40.6637C30.8361 40.6637 32.0357 40.7581 33.254 41.0323V46.3136C32.8632 46.3806 32.3371 46.4288 31.6843 46.462C31.0273 46.4976 30.3391 46.5105 29.6198 46.5105Z" fill="white"/>
<path d="M155.068 46.3655L160.143 51.4771L165.22 46.3655L160.143 41.2539L155.068 46.3655Z" fill="white"/>
<path d="M135.079 17.4921C134.185 17.4921 133.449 18.2334 133.449 19.1338C133.449 20.0343 134.185 20.7756 135.079 20.7756C135.973 20.7756 136.709 20.0343 136.709 19.1338C136.709 18.2334 135.973 17.4921 135.079 17.4921Z" fill="white" fill-opacity="0.5"/>
<path d="M105.073 4.75265C105.967 4.75265 106.703 4.01137 106.703 3.11088C106.703 2.21046 105.967 1.46912 105.073 1.46912C104.179 1.46912 103.443 2.21046 103.443 3.11088C103.443 4.01137 104.179 4.75265 105.073 4.75265Z" fill="white" fill-opacity="0.5"/>
<path d="M101.571 4.75265C102.465 4.75265 103.201 4.01137 103.201 3.11088C103.201 2.21046 102.465 1.46912 101.571 1.46912C100.677 1.46912 99.9414 2.21046 99.9414 3.11088C99.9414 4.01137 100.677 4.75265 101.571 4.75265Z" fill="white" fill-opacity="0.5"/>
<path d="M115.994 17.4916C115.1 17.4916 114.364 18.2329 114.364 19.1333C114.364 20.0338 115.1 20.7751 115.994 20.7751C116.888 20.7751 117.624 20.0338 117.624 19.1333C117.624 18.2329 116.888 17.4916 115.994 17.4916Z" fill="white" fill-opacity="0.5"/>
<path d="M119.495 17.4916C118.601 17.4916 117.865 18.2329 117.865 19.1333C117.865 20.0338 118.601 20.7751 119.495 20.7751C120.389 20.7751 121.125 20.0338 121.125 19.1333C121.125 18.2329 120.389 17.4916 119.495 17.4916Z" fill="white" fill-opacity="0.5"/>
<path d="M146.923 0.785278H143.524V8.54378V10.6462C143.524 12.3571 142.91 13.3287 141.191 13.3287H141.156V10.8389C141.156 7.66213 139.526 6.10839 136.178 6.10839H135.372C134.197 6.10839 132.866 6.19626 131.744 6.6379V9.33921C132.024 9.26798 132.638 8.98543 134.216 8.98543H135.39C136.44 8.98543 138.054 9.26804 138.054 10.6795V13.3285C138.054 13.3107 131.602 13.3285 131.602 13.3285H131.111C130.54 13.3285 129.985 13.2751 129.411 13.2241L129.39 15.9673C130.031 16.0208 130.683 16.0469 131.357 16.0469H131.602H131.779H139.351H141.156H141.436C144.961 16.0469 146.923 14.1937 146.923 10.6275V8.54378L146.923 0.785278Z" fill="white" fill-opacity="0.5"/>
<path d="M149.66 16.0476H153.059V0.786072H149.66V16.0476Z" fill="white" fill-opacity="0.5"/>
<path d="M115.975 16.0466H113.753C113.507 19.1625 111.57 20.777 108.283 20.777H107.863V17.8663H108.037C109.755 17.8663 110.368 16.8947 110.368 15.1818V13.3452V12.9749V12.5332V11.8275V6.26778H113.757V13.3289H115.817H116.227H116.703C118.422 13.3289 119.036 12.3594 119.036 10.6465V8.54403V6.25519H122.435V8.54403V10.6276C122.435 14.1938 120.473 16.0471 116.948 16.0471L115.975 16.0466Z" fill="white" fill-opacity="0.5"/>
<path d="M94.2055 13.4862L91.8187 15.8902L89.4319 13.4862L91.8187 11.0823L94.2055 13.4862Z" fill="white" fill-opacity="0.5"/>
<path d="M127.594 4.75265C128.488 4.75265 129.224 4.01137 129.224 3.11088C129.224 2.21046 128.488 1.46912 127.594 1.46912C126.7 1.46912 125.964 2.21046 125.964 3.11088C125.964 4.01137 126.7 4.75265 127.594 4.75265Z" fill="white" fill-opacity="0.5"/>
<path d="M126.041 6.26653V11.8284V12.534V12.9756V13.3461V15.1804C126.041 16.8955 125.428 17.8651 123.71 17.8651H123.533V20.7779H123.955C127.272 20.7779 129.216 19.1341 129.432 15.9658V6.26599L126.041 6.26653Z" fill="white" fill-opacity="0.5"/>
</g>
<defs>
<clipPath id="clip0_180_1405">
<rect width="166" height="53" fill="white"/>
</clipPath>
</defs>
</svg>
