<svg width="183" height="51" viewBox="0 0 183 51" fill="none" xmlns="http://www.w3.org/2000/svg">
<g clip-path="url(#clip0_180_1428)">
<path fill-rule="evenodd" clip-rule="evenodd" d="M33.5791 45.2872C33.1864 45.3132 32.8056 45.3369 32.4153 45.3369C31.9729 45.3369 31.5471 45.2991 31.1024 45.2872L32.3869 42.2146L33.5791 45.2872ZM35.0079 48.7664C35.235 48.7546 35.5875 48.6932 35.9399 48.6932C36.2948 48.6932 36.7371 48.7546 36.9287 48.7664C36.3586 47.5563 35.5236 45.6725 35.0458 44.5829C34.5916 43.5358 33.8299 41.7868 33.2267 40.0803C33.0847 40.1181 32.9593 40.1417 32.8221 40.1417C32.6684 40.1417 32.543 40.1157 32.3987 40.0803C32.0959 41.1013 31.3626 42.7275 30.0876 45.5472L28.6233 48.7664C28.796 48.7428 28.9758 48.6932 29.191 48.6932C29.3921 48.6932 29.6334 48.7428 29.7966 48.7664C30 48.055 30.4022 47.0198 30.8067 46.0578C31.3129 46.0318 31.8168 46.0081 32.3254 46.0081C32.8671 46.0081 33.3993 46.0318 33.9458 46.0578L34.4757 47.3861L35.0079 48.7664Z" fill="white"/>
<path d="M38.0358 43.0891C38.0358 45.221 38.0358 47.2821 37.8962 48.7664C38.1754 48.7546 38.5326 48.6931 38.8093 48.6931C39.0979 48.6931 39.4007 48.7546 39.6917 48.7664C39.5923 47.7572 39.5663 46.4076 39.5663 44.5498C39.5663 43.2876 39.5663 41.1297 39.7059 40.2055C39.4007 40.2433 39.0885 40.2811 38.8093 40.2811C38.6201 40.2811 38.1517 40.2315 37.9104 40.2055C38.0358 41.4133 38.0358 42.302 38.0358 43.0891Z" fill="white"/>
<path fill-rule="evenodd" clip-rule="evenodd" d="M45.5534 44.5261C46.7007 44.3158 47.7534 43.5996 47.7534 42.2146C47.7534 41.6898 47.5499 41.1793 47.1738 40.8153C46.6297 40.3048 46.0076 40.2055 45.1891 40.2055C44.8958 40.2055 43.4291 40.267 43.1003 40.267C42.4569 40.267 42.1257 40.2291 41.8371 40.2055C41.927 41.8151 41.927 41.9877 41.927 43.6256C41.927 46.0317 41.9105 46.3083 41.8135 48.7664C42.0902 48.731 42.393 48.6931 42.684 48.6931C43.001 48.6931 43.2778 48.7428 43.5285 48.7664C43.5285 48.4426 43.4788 46.833 43.4788 46.469V44.6987H43.7863C44.4676 45.6441 45.253 46.7432 45.8941 47.7312C46.0857 48.0148 46.3624 48.4781 46.5517 48.7664C46.9325 48.7168 47.0839 48.6931 47.576 48.6931C48.0301 48.6931 48.3471 48.7333 48.702 48.7664C47.9071 47.7832 47.5665 47.3459 46.5682 45.9585C46.3766 45.7008 46.0999 45.2872 45.9106 45.0225L45.5534 44.5261ZM43.4788 40.8815C43.6681 40.8673 44.1388 40.8177 44.3801 40.8177C44.7964 40.8177 45.2128 40.8815 45.5534 41.132C45.9958 41.4582 46.0857 41.9049 46.0857 42.432C46.0857 43.2427 45.6173 44.1551 44.3564 44.1551C44.0229 44.1551 43.7201 44.1267 43.4812 44.1125V40.8815H43.4788Z" fill="white"/>
<path d="M52.1369 45.8451C51.5455 44.1126 50.7175 41.6781 50.3272 40.2055C50.0102 40.2552 49.7358 40.2812 49.4425 40.2812C49.1397 40.2812 48.7068 40.2315 48.4561 40.2055C48.9717 41.5528 49.4165 42.7511 49.7595 43.6989C50.3414 45.3251 50.7175 46.4478 51.1764 47.8187L51.4934 48.7665C51.6685 48.731 51.8719 48.6932 52.0115 48.6932C52.151 48.6932 52.2764 48.7168 52.4917 48.7665C52.6928 48.1165 52.934 47.3199 53.1115 46.8094C53.6035 45.3865 53.6674 45.1856 54.3132 43.4129L54.6893 42.3777C54.8312 42.7771 55.0725 43.4129 55.2097 43.8124C55.3493 44.2 55.9951 46.1074 56.1441 46.5329C56.3499 47.093 56.3972 47.2585 56.8656 48.7641C56.9839 48.7523 57.2181 48.6908 57.4097 48.6908C57.5871 48.6908 57.7267 48.731 57.9159 48.7641C58.3985 47.2798 58.4505 47.1309 59.1531 45.1313C59.8486 43.1837 60.2767 42.0751 61.0384 40.2032C60.8468 40.2528 60.6599 40.2788 60.4683 40.2788C60.227 40.2788 60.026 40.2386 59.8864 40.2032C59.4322 41.8246 59.2028 42.6117 58.8408 43.6848C58.2423 45.4314 58.169 45.6323 57.8047 46.5849C57.4002 45.5094 57.0075 44.4222 56.6432 43.3255C56.4398 42.7275 55.6686 40.2292 55.6568 40.2055C55.4794 40.2434 55.3516 40.2812 55.1009 40.2812C54.8762 40.2812 54.7106 40.2315 54.545 40.2055C54.1641 41.7277 52.8229 45.3983 52.6999 45.734L52.3829 46.5471L52.1369 45.8451Z" fill="white"/>
<path fill-rule="evenodd" clip-rule="evenodd" d="M64.8871 45.2872C64.4968 45.3132 64.1183 45.3369 63.7257 45.3369C63.2857 45.3369 62.8551 45.2991 62.4128 45.2872L63.702 42.2146L64.8871 45.2872ZM66.3183 48.7664C66.5478 48.7546 66.8979 48.6932 67.2551 48.6932C67.6052 48.6932 68.0499 48.7546 68.2368 48.7664C67.6714 47.5563 66.8364 45.6725 66.3585 44.5829C65.902 43.5358 65.1379 41.7868 64.5347 40.0803C64.3975 40.1181 64.2721 40.1417 64.1325 40.1417C63.9835 40.1417 63.851 40.1157 63.7138 40.0803C63.411 41.1013 62.6777 42.7275 61.4003 45.5472L59.936 48.7664C60.1087 48.7428 60.2885 48.6932 60.499 48.6932C60.7072 48.6932 60.9438 48.7428 61.1117 48.7664C61.3128 48.055 61.7197 47.0198 62.1242 46.0578C62.6257 46.0318 63.1343 46.0081 63.6381 46.0081C64.1822 46.0081 64.7121 46.0318 65.2562 46.0578L65.7884 47.3861L66.3183 48.7664Z" fill="white"/>
<path d="M71.6241 45.4219C71.6241 45.3109 71.6998 45.1738 71.7874 45.0225C72.3196 44.1243 72.8116 43.186 73.3794 42.2902C73.5686 41.9877 74.4912 40.5411 74.6828 40.2055C74.5432 40.2551 74.4037 40.2811 74.1505 40.2811C73.8714 40.2811 73.6159 40.241 73.4149 40.2055C72.5041 42.1767 72.303 42.6022 71.2314 44.4221C70.1551 42.5644 69.6749 41.5787 69.0173 40.2055C68.6506 40.267 68.2816 40.2811 67.9812 40.2811C67.702 40.2811 67.4111 40.2551 66.9451 40.2055C67.598 41.2928 68.6743 43.0134 69.3201 44.1102L70.0629 45.3865C70.0629 46.157 70.025 47.795 69.9895 48.7664C70.2285 48.7428 70.5809 48.6931 70.834 48.6931C71.125 48.6931 71.4183 48.7428 71.7093 48.7664C71.6596 47.6059 71.6194 46.9346 71.6194 45.8828V45.4219" fill="white"/>
<path d="M75.4139 46.8969C75.35 47.4948 75.3358 47.6556 75.1182 48.3055C75.5747 48.5325 76.3979 48.9437 77.4837 48.9437C79.7972 48.9437 80.689 47.4854 80.689 46.2138C80.689 45.8616 80.6015 45.1242 80.074 44.564C79.7073 44.1645 79.3265 44.0251 78.3566 43.6516C77.2424 43.2286 76.5966 42.978 76.5966 42.068C76.5966 41.3282 77.091 40.7184 78.0893 40.7184C78.8818 40.7184 79.5559 41.0919 79.7452 41.8057H79.9179C80.0338 41.3306 80.0598 41.2337 80.3106 40.6168C79.6931 40.345 79.1349 40.1063 78.2123 40.1063C75.9248 40.1063 75.2648 41.5055 75.2648 42.6046C75.2648 43.6398 75.6339 44.278 76.8592 44.8169C77.214 44.9658 77.8102 45.1903 78.165 45.3416C78.4063 45.4385 79.2011 45.7883 79.2011 46.7763C79.2011 47.6745 78.5435 48.3363 77.5452 48.3363C76.8001 48.3363 76.1637 48.1472 75.5865 46.9016H75.4139" fill="white"/>
<path fill-rule="evenodd" clip-rule="evenodd" d="M5.19238 23.8306C5.19238 14.3952 10.3114 11.8472 14.1815 11.8472C20.4029 11.8472 23.0949 16.9408 23.0949 22.3723C23.0949 25.4757 22.7164 28.3994 21.1575 30.7607C19.6057 33.1172 17.0296 34.54 14.2193 34.54C7.2031 34.5377 5.19238 27.9504 5.19238 23.8306ZM24.079 43.1151C25.2121 42.3304 26.9933 41.3566 28.2873 40.7941L19.7169 35.5493C24.9873 33.7175 28.2873 29.0731 28.2873 22.7434C28.2873 13.757 21.3444 9.93982 14.2548 9.93982C6.59989 9.93982 0 14.1305 0 23.6439C0 25.6624 0.454187 29.4843 3.63585 32.6657C6.93816 35.9653 10.8437 36.4498 14.1413 36.4498C14.5576 36.4498 14.9763 36.4498 15.3903 36.412L24.079 43.1151Z" fill="white"/>
<path fill-rule="evenodd" clip-rule="evenodd" d="M45.9746 25.4757C44.7989 25.5537 43.6611 25.6293 42.4878 25.6293C41.1583 25.6293 39.8691 25.5158 38.5467 25.4757L42.4121 16.2671L45.9746 25.4757ZM50.2633 35.9274C50.9446 35.8873 52.0044 35.6982 53.0689 35.6982C54.1334 35.6982 55.4581 35.8873 56.0282 35.9274C54.3179 32.2922 51.8175 26.6385 50.3745 23.3792C49.012 20.2332 46.7363 14.9908 44.9148 9.85944C44.4985 9.97525 44.1176 10.0509 43.6989 10.0509C43.2447 10.0509 42.8639 9.97525 42.4499 9.85944C41.5392 12.9345 39.3416 17.8011 35.5094 26.2604L31.1118 35.9251C31.6464 35.8494 32.1716 35.6958 32.8197 35.6958C33.4253 35.6958 34.1468 35.8471 34.6412 35.9251C35.2468 33.7908 36.4651 30.6779 37.6739 27.7967C39.1925 27.7234 40.7089 27.6478 42.2252 27.6478C43.8527 27.6478 45.4494 27.7211 47.0793 27.7967L48.6689 31.7675L50.2633 35.9274Z" fill="white"/>
<path d="M67.0872 16.9408C67.0872 15.5155 67.1274 14.0974 67.1629 12.7454C69.7768 12.7454 72.4712 12.7879 74.709 13.0101C74.5931 12.4098 74.5174 12.0741 74.5174 11.6629C74.5174 11.3603 74.5931 10.8734 74.709 10.24C71.0684 10.4243 67.7306 10.4645 64.5821 10.4645C61.663 10.4645 57.4523 10.4243 54.4575 10.24C54.5734 10.6867 54.6468 11.1736 54.6468 11.6251C54.6468 12.0718 54.5734 12.561 54.4575 13.0101C56.3925 12.821 60.0355 12.7454 60.3761 12.7454H62.2709C62.3112 14.2085 62.3466 15.5179 62.3466 16.9029L62.3869 27.35C62.3869 30.1981 62.1574 33.0841 62.006 35.9298C63.3709 35.7809 63.9387 35.7005 64.5845 35.7005C65.0363 35.7005 66.2569 35.8164 67.3545 35.9298C67.241 34.8804 67.0896 33.6442 67.0896 30.7961V16.9408" fill="white"/>
<path fill-rule="evenodd" clip-rule="evenodd" d="M88.195 25.4757C87.0169 25.5537 85.8791 25.6293 84.7058 25.6293C83.3787 25.6293 82.0871 25.5158 80.7577 25.4757L84.6277 16.2671L88.195 25.4757ZM92.479 35.9274C93.1579 35.8873 94.2224 35.6982 95.2845 35.6982C96.3467 35.6982 97.6714 35.8873 98.2391 35.9274C96.5312 32.2922 94.0355 26.6385 92.5902 23.3792C91.2276 20.2332 88.9519 14.9908 87.1305 9.85944C86.7094 9.97525 86.3309 10.0509 85.9146 10.0509C85.4628 10.0509 85.0819 9.97525 84.6632 9.85944C83.7548 12.9345 81.5572 17.8011 77.725 26.2604L73.3298 35.9251C73.8597 35.8494 74.3896 35.6958 75.033 35.6958C75.641 35.6958 76.3577 35.8471 76.8569 35.9251C77.4672 33.7908 78.6783 30.6779 79.8895 27.7967C81.4035 27.7234 82.9198 27.6478 84.4385 27.6478C86.0707 27.6478 87.6604 27.7211 89.2949 27.7967L90.887 31.7675L92.479 35.9274Z" fill="white"/>
<path fill-rule="evenodd" clip-rule="evenodd" d="M113.513 23.1948C116.962 22.5566 120.109 20.4223 120.109 16.2648C120.109 14.6906 119.501 13.1567 118.365 12.0718C116.738 10.5378 114.876 10.24 112.411 10.24C111.541 10.24 107.143 10.4243 106.154 10.4243C104.222 10.4243 103.235 10.3109 102.36 10.24C102.627 15.0688 102.627 15.5935 102.627 20.5003C102.627 27.7258 102.587 28.5483 102.284 35.9275C103.119 35.814 104.028 35.6982 104.898 35.6982C105.847 35.6982 106.682 35.8495 107.441 35.9275C107.441 34.9513 107.29 30.1225 107.29 29.0352V23.7195H108.198C110.247 26.5629 112.598 29.8601 114.533 32.8193C115.098 33.682 115.938 35.0647 116.506 35.9275C117.644 35.7785 118.098 35.6982 119.576 35.6982C120.941 35.6982 121.89 35.814 122.95 35.9275C120.56 32.9682 119.539 31.6565 116.544 27.5013C115.976 26.7142 115.139 25.478 114.571 24.6933L113.513 23.1948ZM107.294 12.2585C107.862 12.223 109.263 12.0718 109.986 12.0718C111.238 12.0718 112.489 12.2585 113.513 13.0078C114.841 13.9815 115.103 15.3264 115.103 16.8982C115.103 19.3327 113.703 22.0697 109.911 22.0697C108.924 22.0697 108.014 21.9941 107.297 21.9563V12.2585H107.294Z" fill="white"/>
<path d="M170.194 23.2657C170.194 23.5044 166.762 23.7313 161.865 23.9228C161.002 23.4359 160.342 22.949 159.864 22.5306C165.804 22.741 170.194 22.9939 170.194 23.2657Z" fill="white"/>
<path d="M166.677 15.0971C166.677 15.2957 163.795 15.4871 159.687 15.6478C160.278 15.3051 160.886 14.9648 161.517 14.6197C164.628 14.7662 166.677 14.927 166.677 15.0971Z" fill="white"/>
<path d="M136.029 32.6728C134.125 32.694 132.455 32.7035 131.149 32.7035C129.275 32.7035 127.754 32.1339 127.754 31.4224C127.754 30.7204 129.275 30.1508 131.149 30.1508C132.816 30.1508 135.068 30.1674 137.649 30.2005C136.651 31.6257 136.173 32.4813 136.131 32.531C136.102 32.5711 136.067 32.6208 136.029 32.6728Z" fill="white" fill-opacity="0.5"/>
<path d="M137.053 34.384C137.687 35.1309 138.285 35.762 139.092 36.4498C139.092 36.4498 139.395 36.8776 140.317 36.5089C141.254 36.1355 142.049 35.6178 142.948 34.4313C145.564 34.4739 148.346 34.5329 151.078 34.5944C151.305 34.9158 151.76 35.5847 152.325 36.412C144.703 36.6082 136.431 36.724 132.194 36.724C130.427 36.724 128.996 36.1827 128.996 35.5186C128.996 34.8567 130.425 34.3155 132.194 34.3155C133.483 34.3155 135.144 34.3249 137.051 34.3486C137.046 34.3651 137.053 34.384 137.053 34.384Z" fill="white" fill-opacity="0.5"/>
<path d="M134.106 40.6617C132.54 40.6617 131.272 40.1843 131.272 39.5981C131.272 39.0095 132.54 38.5321 134.106 38.5321C138.252 38.5321 146.745 38.6574 154.021 38.8606C154.371 39.357 154.721 39.851 155.057 40.3024C147.563 40.5175 138.449 40.6617 134.106 40.6617Z" fill="white" fill-opacity="0.5"/>
<path d="M158.27 44.07C152.16 44.3347 141.657 44.5144 137.29 44.5144C136.06 44.5144 135.064 44.1362 135.064 43.6777C135.064 43.2168 136.062 42.8409 137.29 42.8409C141.467 42.8409 151.268 42.9993 157.456 43.2475C157.735 43.5429 158.01 43.8195 158.27 44.07Z" fill="white" fill-opacity="0.5"/>
<path d="M142.328 46.3343C145.931 46.3343 156.905 46.6037 156.905 46.9276C156.905 47.2608 145.931 47.5208 142.328 47.5208C141.623 47.5208 141.058 47.2608 141.058 46.9276C141.058 46.6037 141.626 46.3343 142.328 46.3343Z" fill="white" fill-opacity="0.5"/>
<path d="M142.369 24.4262C137.836 24.5019 133.765 24.5468 131.149 24.5468C129.275 24.5468 127.754 23.9724 127.754 23.2681C127.754 22.5613 129.275 21.987 131.149 21.987C134.191 21.987 139.184 22.0461 144.599 22.1454C143.793 22.9301 143.05 23.6935 142.369 24.4262Z" fill="white" fill-opacity="0.5"/>
<path d="M164.621 18.7134C167.28 18.8553 168.95 19.0089 168.95 19.172C168.95 19.3516 166.928 19.5218 163.793 19.6778C164.465 19.1767 164.609 18.7418 164.621 18.7134Z" fill="white"/>
<path d="M132.194 20.375C130.427 20.375 128.996 19.8338 128.996 19.172C128.996 18.5102 130.425 17.9666 132.194 17.9666C135.813 17.9666 142.385 18.054 148.975 18.2005C148.169 18.8718 147.4 19.5383 146.676 20.1931C140.892 20.3065 135.395 20.375 132.194 20.375Z" fill="white" fill-opacity="0.5"/>
<path d="M151.89 15.889C145.15 16.0568 137.85 16.1608 134.103 16.1608C132.537 16.1608 131.269 15.6857 131.269 15.0972C131.269 14.5086 132.537 14.0288 134.103 14.0288C138.238 14.0288 146.709 14.1588 153.976 14.3621C153.614 14.6197 153.245 14.8821 152.879 15.1539C152.545 15.3973 152.214 15.6455 151.89 15.889Z" fill="white" fill-opacity="0.5"/>
<path d="M137.29 11.8496C136.06 11.8496 135.064 11.4761 135.064 11.0129C135.064 10.5496 136.062 10.1761 137.29 10.1761C141.921 10.1761 153.484 10.3747 159.351 10.6654C158.977 10.9089 158.606 11.1594 158.225 11.4099C152.108 11.6723 141.642 11.8496 137.29 11.8496Z" fill="white" fill-opacity="0.5"/>
<path d="M130.799 28.6476C128.89 28.6476 127.34 28.0685 127.34 27.3429C127.34 26.6267 128.89 26.0453 130.799 26.0453C133.197 26.0453 136.776 26.0807 140.833 26.1398C140.069 27.0238 139.409 27.844 138.841 28.5791C135.617 28.6216 132.795 28.6476 130.799 28.6476Z" fill="white" fill-opacity="0.5"/>
<path d="M141.058 7.76294C141.058 7.43204 141.623 7.16968 142.328 7.16968C145.931 7.16968 156.905 7.43204 156.905 7.76294C156.905 8.08911 145.931 8.35856 142.328 8.35856C141.626 8.35856 141.058 8.08911 141.058 7.76294Z" fill="white" fill-opacity="0.5"/>
<path d="M170.556 26.3833C170.582 27.0285 170.578 27.6762 170.547 28.3049C164.157 28.5531 158.106 28.936 158.106 29.3614C158.106 29.7798 164.025 30.1579 170.336 30.4061C170.223 31.1246 170.081 31.8314 169.903 32.5215C163.684 32.7744 157.912 33.1432 157.912 33.5591C157.912 33.961 163.299 34.3202 169.272 34.5731C168.995 35.3224 168.685 36.0551 168.335 36.7571C163.211 36.9982 158.975 37.3243 158.975 37.6789C158.975 38.0098 162.677 38.317 167.339 38.551C167.081 38.9718 166.804 39.3877 166.521 39.7777C166.218 40.2032 165.889 40.6215 165.537 41.0352C162.62 41.2573 160.621 41.5008 160.621 41.7702C160.621 41.9971 162.054 42.2122 164.262 42.4037C163.055 43.5831 161.631 44.6845 159.954 45.6418C159.954 45.6418 157.972 43.9613 156.346 41.9971C154.889 40.2457 151.807 35.632 151.074 34.5968C150.347 33.5615 149.872 33.259 149.023 33.5615C147.882 33.9586 146.555 34.1619 146.146 34.1619C145.739 34.1619 145.515 34.0035 146.201 33.734C146.879 33.4646 149.571 32.2072 150.891 29.6167C152.382 26.7 151.071 22.6677 151.071 22.6677C150.574 24.821 149.441 25.6269 149.441 25.6269C149.806 23.6273 149.406 21.8121 148.405 20.5381L147.847 23.0719C147.847 23.0719 147.497 23.0554 146.633 23.7715C145.768 24.4901 145.531 25.5371 145.531 25.5371C146.212 25.8066 147.028 25.1353 147.028 25.1353C145.985 28.9903 144.49 32.1292 143.395 33.7908C142.304 35.45 141.406 36.0764 140.313 36.5113C139.39 36.8776 139.087 36.4522 139.087 36.4522C138.281 35.7644 137.68 35.1333 137.048 34.3864C137.048 34.3864 136.999 34.2989 137.169 34.3037C137.621 34.3084 138.42 33.5473 138.598 33.2353C138.796 32.8761 138.775 32.5995 138.671 32.5806C138.576 32.5617 138.404 32.8477 137.538 33.3913C136.672 33.9302 136.277 33.552 135.991 33.2542C135.768 33.0155 135.984 32.7201 136.128 32.5333C136.258 32.3703 140.814 23.9748 152.878 15.1563C168.687 3.59595 178.779 0.478376 179.356 0.251472C179.739 0.102566 180.364 -0.0936121 180.503 0.0505667C180.662 0.211291 180.738 0.341288 180.716 0.530375C180.697 0.717098 180.593 0.814005 179.865 1.13073C173.797 3.77085 166.715 8.17185 162.688 10.734C157.74 13.1165 153.016 16.5153 152.841 16.5957C152.46 16.8297 152.741 17.1677 152.973 17.0282C161.331 11.5376 171.136 7.80077 181.961 4.7352C182.479 4.58629 182.763 4.58629 182.848 4.70447C182.942 4.82738 182.985 4.96919 182.999 5.12755C183.013 5.32373 182.85 5.42773 182.405 5.60027C170.774 9.86654 162.199 13.8279 156.682 17.4938C156.682 17.4938 156.11 17.8342 156.105 18.2289C156.103 18.3778 156.413 18.3944 156.413 18.3944C159.176 18.444 162.863 18.6071 164.619 18.7064C164.619 18.7064 164.368 19.5856 162.686 20.2923C161.387 20.836 160.19 20.7485 158.998 20.7603C158.731 20.7532 158.511 21.0179 158.721 21.2992C158.83 21.4387 161.361 25.4615 170.556 26.3833Z" fill="white"/>
<path d="M86.2598 47.4192H84.7009C84.7009 47.4192 84.488 46.4737 85.051 46.1074C85.6188 45.741 86.2598 45.4598 86.2598 45.4598V47.4192ZM93.6545 43.8738C93.6545 43.8738 92.706 44.4127 92.1075 44.9374C91.509 45.4598 92.2305 45.6607 92.2305 45.6607V47.4192H87.7052V41.2597C87.7052 41.2597 86.0588 42.7582 85.905 42.9567C85.7465 43.1694 86.2953 43.3609 86.2953 43.3609L86.203 43.9423C86.203 43.9423 85.5478 44.2803 84.7482 44.8145C83.9558 45.3392 83.3691 46.0081 83.3691 46.4737C83.3691 46.937 83.1704 48.7688 83.1704 48.7688H93.6569V43.8738H93.6545ZM84.2917 41.6189C84.8074 41.6189 85.1717 41.418 85.1717 41.0139C85.1717 40.605 84.9257 40.3213 84.2917 40.3213C83.7239 40.3213 83.5726 40.5671 83.5726 41.0139C83.5749 41.4629 83.7665 41.6189 84.2917 41.6189ZM86.2196 41.6189C86.7424 41.6189 87.0925 41.418 87.0925 41.0139C87.0925 40.605 86.8536 40.3213 86.2196 40.3213C85.6495 40.3213 85.5005 40.5671 85.5005 41.0139C85.5005 41.4629 85.6968 41.6189 86.2196 41.6189ZM89.1387 49.2959C88.5781 49.2959 88.4196 49.5369 88.4196 49.9837C88.4196 50.428 88.6206 50.5911 89.1387 50.5911C89.6568 50.5911 90.0234 50.3902 90.0234 49.9837C90.0234 49.5748 89.7845 49.2959 89.1387 49.2959ZM91.1447 49.2959C90.5793 49.2959 90.4256 49.5369 90.4256 49.9837C90.4256 50.428 90.629 50.5911 91.1447 50.5911C91.6698 50.5911 92.027 50.3902 92.027 49.9837C92.027 49.5748 91.7881 49.2959 91.1447 49.2959ZM113.736 41.5008C114.256 41.5008 114.618 41.3022 114.618 40.8957C114.618 40.4915 114.379 40.2055 113.736 40.2055C113.175 40.2055 113.021 40.449 113.021 40.8957C113.021 41.3471 113.22 41.5008 113.736 41.5008ZM115.739 41.5008C116.255 41.5008 116.617 41.3022 116.617 40.8957C116.617 40.4915 116.373 40.2055 115.739 40.2055C115.172 40.2055 115.018 40.449 115.018 40.8957C115.02 41.3471 115.217 41.5008 115.739 41.5008ZM121.268 41.6686C120.986 41.9097 121.069 42.2004 121.426 42.1578V48.7782H122.912V40.5364C122.912 40.534 121.544 41.4251 121.268 41.6686ZM115.297 45.3818H114.339C114.339 44.857 115.297 44.5687 115.297 44.5687V45.3818ZM108.967 46.4737C108.967 46.7148 108.955 47.1048 108.945 47.4192H100.552V45.9608C100.772 45.403 101.144 45.3369 101.716 45.3369H107.848C109.173 45.3369 108.967 46.0223 108.967 46.4737ZM118.781 42.1531V47.4215H116.783V42.6376C116.783 42.6376 116.373 42.7913 115.815 43.0371C115.262 43.2829 113.251 44.0889 113.251 45.1785V46.4383H115.295V47.4215H110.438C110.445 47.1899 110.448 46.8495 110.448 46.3532C110.448 44.7814 109.095 43.9282 107.886 43.9282H102.275C101.293 43.9282 100.817 44.1645 100.55 44.4316V40.3757C100.55 40.3757 99.6749 40.9831 99.0291 41.4653C98.388 41.9498 99.0291 42.276 99.0291 42.276V47.4239H97.191L97.1485 43.0064C97.1485 43.0064 95.8711 43.9305 95.5044 44.2118C95.1448 44.4907 95.3459 44.7412 95.7457 44.7412C95.7457 44.7412 95.6724 48.0053 95.6724 48.7735C95.6724 49.5488 95.0289 50.4327 93.6616 50.0309C93.6616 50.0309 93.2264 50.1113 93.5883 50.4351C93.9479 50.7566 94.3808 51 94.8633 51C95.3459 51 97.1106 50.6691 97.1106 48.7735H120.258V40.5364C120.258 40.5364 118.897 41.4251 118.618 41.6686C118.337 41.9026 118.417 42.1909 118.781 42.1531Z" fill="white"/>
</g>
<defs>
<clipPath id="clip0_180_1428">
<rect width="183" height="51" fill="white"/>
</clipPath>
</defs>
</svg>
