<svg width="185" height="50" viewBox="0 0 185 50" fill="none" xmlns="http://www.w3.org/2000/svg">
<path d="M177.553 22.1436V13.9893H169.437V22.1436H164.973V2.81799H169.437V10.483H177.553V2.81799H182.017V22.1436H177.553Z" fill="white"/>
<path d="M81.7825 2.81799V14.8863C81.7825 16.191 81.9448 17.4141 82.3506 18.3111C82.7564 19.2081 83.3246 20.0235 83.9738 20.5943C84.7043 21.1651 85.5971 21.6544 86.571 21.899C87.545 22.1436 88.6812 22.3067 89.9798 22.3067C91.1973 22.3067 92.3335 22.1436 93.3075 21.899C94.2814 21.6544 95.093 21.1651 95.7423 20.5943C96.3916 20.0235 96.9598 19.2081 97.2844 18.3111C97.6902 17.3326 97.8525 16.191 97.8525 14.8863V2.81799H93.7133V14.8048C93.7133 16.0279 93.3886 17.0064 92.8205 17.7403C92.2524 18.4742 91.2784 18.8819 89.9798 18.8819C88.6812 18.8819 87.7073 18.4742 87.1392 17.7403C86.571 17.0064 86.2464 16.0279 86.2464 14.8048V2.81799H81.7825Z" fill="white"/>
<path d="M68.9588 22.1436V6.40587H63.7644V2.81799H78.6982V4.53039C78.6982 5.59044 77.8866 6.40587 76.8315 6.40587H73.4227V22.1436H68.9588Z" fill="white"/>
<path d="M140.381 2.81799H144.845V22.1436H140.381V2.81799Z" fill="white"/>
<path d="M125.61 13.0924L125.772 13.2555L131.454 20.5943C132.184 21.4913 133.239 22.0621 134.457 22.0621H138.028L129.911 11.6246L129.83 11.4615L129.911 11.2984L136.567 2.81799H131.941L125.772 11.1353L125.61 11.2984V10.9723V2.81799H121.146V22.1436H125.61V13.4185V13.0924Z" fill="white"/>
<path d="M115.383 22.1436C114.085 22.1436 112.786 21.4097 112.137 20.3497L108.647 14.6417H106.456V22.2252H101.992V2.81799H109.946C111.975 2.81799 113.598 3.38879 114.653 4.3673C115.789 5.42736 116.357 6.89513 116.357 8.60753C116.357 9.5045 116.114 10.4015 115.627 11.2984C115.14 12.1954 114.328 12.9293 113.192 13.5001L112.949 13.5816L118.386 22.0621H115.383V22.1436ZM106.456 11.6246H109.053C109.946 11.6246 110.676 11.38 111.163 10.8907C111.65 10.4015 111.893 9.74912 111.893 8.9337C111.893 8.11827 111.65 7.46593 111.244 6.97667C110.757 6.48742 110.108 6.24279 109.134 6.24279H106.537V11.6246H106.456Z" fill="white"/>
<path d="M148.498 21.3282V17.6588C149.877 18.3111 151.744 18.9634 153.611 18.9634C155.802 18.9634 156.857 18.2296 156.857 16.7618C156.857 15.0494 155.396 14.8863 152.393 13.5816C150.364 12.6847 148.498 11.2984 148.498 8.03672C148.498 4.28576 151.338 2.49182 155.315 2.49182C157.425 2.49182 159.211 2.98108 160.185 3.38879V6.97667C159.211 6.48741 157.425 5.91661 155.559 5.91661C153.611 5.91661 152.718 6.6505 152.718 7.87364C152.718 9.17832 153.854 9.58604 155.802 10.3199C158.318 11.6246 161.321 12.1954 161.321 16.5172C161.321 20.2681 158.318 22.3067 154.341 22.3067C151.988 22.3882 150.04 21.9805 148.498 21.3282Z" fill="white"/>
<path d="M155.478 47.3403V28.0147H167.49V29.7271C167.49 30.7872 166.678 31.6026 165.623 31.6026H159.86V35.7613H166.353V39.023H159.86V43.7524H167.49V47.3403H155.478Z" fill="white"/>
<path d="M111.488 47.3403V28.0147H113.679C114.978 28.0147 115.952 29.0748 115.952 30.2979V43.834H123.013V47.3403H111.488Z" fill="white"/>
<path d="M83.9739 47.3403V28.0147H88.4378V47.3403H83.9739Z" fill="white"/>
<path d="M105.806 47.3403C104.508 47.3403 103.209 46.6064 102.56 45.5464L99.0698 39.8384H96.8785V47.4219H92.4146V28.0147H100.368C102.397 28.0147 104.021 28.5855 105.076 29.564C106.212 30.6241 106.78 32.0918 106.78 33.8042C106.78 34.7012 106.537 35.5982 106.05 36.5767C105.563 37.4737 104.751 38.2075 103.615 38.7783L103.371 38.8599L108.809 47.3403H105.806ZM96.9596 36.8213H99.5568C100.531 36.8213 101.18 36.5767 101.667 36.0874C102.154 35.5982 102.397 34.9458 102.397 34.1304C102.397 33.315 102.154 32.6626 101.748 32.1734C101.261 31.6841 100.612 31.4395 99.638 31.4395H97.0408L96.9596 36.8213Z" fill="white"/>
<path d="M74.2343 28.0147H69.1211L61.8977 47.3403H65.063C65.8746 47.3403 66.6051 46.8511 66.8486 46.0356L67.579 43.7524H75.3706L76.5069 47.3403H81.2954L74.2343 28.0147ZM68.7153 40.3277L70.4197 35.4351C70.8255 34.375 71.2313 33.1519 71.4748 32.3365H71.556C71.7995 33.2334 72.2053 34.2935 72.5299 35.4351L74.2343 40.3277H68.7153Z" fill="white"/>
<path d="M171.061 46.5249V42.8555C172.44 43.5078 174.307 44.1602 176.174 44.1602C178.365 44.1602 179.42 43.4263 179.42 41.9585C179.42 40.2461 177.959 40.083 174.956 38.7783C172.927 37.8814 171.061 36.4951 171.061 33.2334C171.061 29.4825 173.901 27.6885 177.878 27.6885C179.988 27.6885 181.774 28.1778 182.748 28.5855V32.1734C181.774 31.6841 179.988 31.1133 178.122 31.1133C176.174 31.1133 175.281 31.8472 175.281 33.0704C175.281 34.375 176.417 34.7828 178.365 35.5166C180.881 36.8213 183.884 37.3921 183.884 41.7139C183.884 45.4648 180.881 47.5034 176.904 47.5034C174.551 47.585 172.603 47.1772 171.061 46.5249Z" fill="white"/>
<path d="M134.457 28.0147H137.216C138.515 28.0147 139.732 28.667 140.463 29.8086L145.819 38.4522C146.387 39.4307 147.118 40.6538 147.524 41.5508H147.605C147.524 40.6538 147.524 39.5122 147.524 38.6153V28.0147H151.419V47.3403H146.55L140.057 36.9029C139.489 35.9243 138.839 34.7828 138.352 33.8858H138.271C138.271 34.7012 138.352 35.6797 138.352 36.6582V47.3403H134.457V28.0147Z" fill="white"/>
<path d="M125.935 28.0147H130.398V47.3403H125.935V28.0147Z" fill="white"/>
<path d="M28.4589 0.534789C40.7956 1.83947 50.4538 12.2769 50.4538 25.0791C50.4538 38.6968 39.497 49.705 25.9429 49.705C12.3889 49.705 1.35083 38.6968 1.35083 25.0791C1.35083 11.4615 12.3077 0.371704 25.9429 0.371704C26.7545 0.371704 27.6473 0.453247 28.4589 0.534789ZM29.7575 47.9926C42.3376 45.8725 50.8596 33.8857 48.7494 21.1651C46.9639 10.6461 38.4419 2.98107 28.3778 1.92102C26.3487 1.67639 24.2385 1.75793 22.1283 2.0841C19.6123 2.49181 17.2586 3.30724 15.1484 4.44884C26.1864 8.28134 32.1924 14.0709 32.5982 19.9419C32.8417 23.6114 31.1373 26.2207 28.8647 28.3408L44.6102 27.2808C45.016 27.2808 45.1783 27.77 44.6913 27.9331L7.11333 38.6968C10.9279 43.997 16.8528 47.5034 23.4269 48.1557C25.5371 48.4003 27.6473 48.4003 29.7575 47.9926ZM19.45 25.5684C21.479 17.8218 19.1253 9.66757 13.5251 5.34581C5.8959 10.2384 1.43199 19.3712 3.05523 28.9116C3.5422 32.0918 4.67847 34.9458 6.30171 37.4736C12.3077 35.8428 17.5832 32.6626 19.45 25.5684Z" fill="white"/>
<path d="M29.7576 47.9927C42.3377 45.8726 50.8597 33.8858 48.7495 21.1651C46.964 10.6461 38.442 2.9811 28.3779 1.92105C26.3488 1.67642 24.2386 1.75796 22.1284 2.08413C19.6124 2.49185 17.2587 3.30727 15.1485 4.44887C26.1865 8.28138 32.1925 14.0709 32.5983 19.942C32.8418 23.6114 31.1374 26.2208 28.8648 28.3409L44.6103 27.2808C45.0161 27.2808 45.1784 27.7701 44.6914 27.9332L7.11342 38.6968C10.928 43.9971 16.8529 47.5034 23.427 48.1558C25.5372 48.4004 27.6474 48.4004 29.7576 47.9927ZM19.45 25.5684C21.4791 17.8219 19.1254 9.6676 13.5252 5.34584C5.89599 10.2384 1.43208 19.3712 3.05532 28.9117C3.54229 32.0918 4.67856 34.9458 6.3018 37.4737C12.3078 35.8428 17.5833 32.6626 19.45 25.5684Z" fill="white" fill-opacity="0.05"/>
</svg>
