<svg width="171" height="61" viewBox="0 0 171 61" fill="none" xmlns="http://www.w3.org/2000/svg">
<path d="M95.533 6.69781L95.4227 6.5871L93.4382 4.59436L91.2332 6.80852L93.4382 9.02267L95.533 6.69781Z" fill="white"/>
<path d="M99.9432 6.69781L99.6124 6.5871L97.6279 4.59436L95.4229 6.80852L97.6279 9.02267L99.9432 6.69781Z" fill="white"/>
<path d="M69.9547 6.25498C69.9547 6.69781 70.3957 6.91923 70.7265 7.02994C71.1675 7.14065 71.6085 7.47277 71.6085 8.13702V25.186H90.3513V25.5181C90.3513 25.6288 90.3513 25.6288 90.3513 25.961C90.3513 27.4002 90.7923 28.2858 91.564 28.618C91.564 28.618 92.005 28.9501 92.6665 28.9501C93.1075 28.9501 93.5485 28.8394 94.0998 28.5073L94.4306 28.3965L94.0998 28.0644C93.6588 27.6216 93.328 26.2931 93.328 25.5181V25.4074H100.274V9.68693C100.274 9.68693 99.3919 11.6797 95.9741 14.2259C95.9741 14.2259 96.0843 14.8902 96.7458 15.2223C97.6278 15.6651 97.5176 16.2187 97.5176 16.2187V22.529H93.2178V22.1969V21.8648C93.2178 20.3149 92.7768 16.5508 88.5872 16.5508H88.477C87.2642 16.5508 86.0514 16.5508 85.0592 16.5508H84.7284C82.3029 16.5508 80.9799 16.2187 80.5389 15.5544L80.4286 15.2223L80.3184 15.333C79.8774 15.6651 79.5466 16.2187 79.5466 16.8829C79.5466 17.8793 80.2081 19.0971 81.0901 19.0971C81.7516 19.0971 82.6336 19.0971 83.5157 19.0971C85.0592 19.0971 86.8232 19.0971 86.8232 19.0971C90.241 19.0971 90.3513 20.647 90.3513 21.3112V22.0862H74.3648V1.27313C74.3648 1.27313 72.4905 3.81941 69.8445 5.70144V5.81215V6.25498H69.9547Z" fill="white"/>
<path d="M59.0398 27.7323C59.0398 27.7323 58.7091 30.2786 63.8909 30.2786C68.0804 30.2786 68.1907 27.6216 68.1907 27.6216V17.8793C68.1907 17.2151 68.0804 15.5545 66.3164 15.5545H51.7632V14.4474C51.7632 14.1153 51.8735 14.1153 52.2042 14.0045C52.976 13.5617 53.0863 13.0082 52.976 12.7868C51.3222 11.7904 49.6685 9.57623 49.6685 9.57623V18.1007H64.2216H64.3319C64.7729 18.1007 65.4344 18.2114 65.4344 19.2078V26.0717C65.4344 26.0717 65.4344 27.5109 64.0011 27.5109C61.6859 27.5109 61.7961 26.2931 61.7961 26.2931V22.529H49.6685V25.5182H59.2603V27.7323H59.0398Z" fill="white"/>
<path d="M120.009 8.13705C120.009 7.36209 120.45 7.14068 120.781 7.02997C121.111 6.91926 121.442 6.69784 121.552 6.0336V5.92289C121.552 5.59077 121.442 5.59077 121.111 5.48006C120.781 5.36935 120.34 5.03723 119.458 4.26227C117.914 3.04449 117.583 2.38024 117.583 2.38024L117.142 1.60529V25.4075H120.119C120.009 25.2968 120.009 8.57988 120.009 8.13705Z" fill="white"/>
<path d="M110.086 28.3966L108.102 30.3893L106.117 28.3966L108.102 26.4038L110.086 28.3966ZM103.361 28.3966L108.212 33.2677L113.063 28.3966L110.086 25.4075L113.614 21.6434V1.60529C113.614 1.60529 112.181 4.5944 109.866 6.14431V6.25501C109.866 6.69784 110.196 6.91926 110.527 7.02997C110.858 7.14068 111.189 7.4728 111.189 8.13705C111.189 8.80129 111.189 20.2042 111.189 20.2042L108.212 23.304L105.235 20.2042C105.235 20.0935 105.235 8.57988 105.235 8.13705C105.235 7.36209 105.566 7.14068 105.897 7.02997C106.227 6.91926 106.338 6.69784 106.558 6.25501V6.14431C104.353 4.5944 102.81 1.60529 102.81 1.60529V21.9755L106.338 25.6289L103.361 28.3966Z" fill="white"/>
<path d="M94.8714 38.9138L95.6431 39.3566C95.7534 39.4673 95.7534 39.4673 95.7534 39.6887V45.9991H82.3027L79.2157 49.8738V39.6887V39.578L79.3259 39.4673L79.9874 39.0245V38.3602H73.1519V39.0245L73.8134 39.4673L73.9236 39.578V58.2876V58.6198L73.8134 58.7305L73.1519 59.1733V59.8375H79.9874V59.1733L79.2157 58.7305L79.1054 58.6198V50.0953L79.8772 50.206L80.7592 49.7631L81.2002 49.6524C81.2002 49.6524 81.3105 49.6524 81.531 49.6524H95.6431V56.2949L100.715 50.7595V39.9101L100.825 39.7994L101.597 39.4673V38.8031H94.8714V38.9138Z" fill="white"/>
<path d="M167.748 46.5526C166.976 44.0063 165.102 42.0136 162.345 40.4637C159.92 39.0245 156.281 38.4709 151.541 38.4709H133.129V39.1352L133.9 39.578V41.7922H151.43C154.958 41.7922 157.604 42.235 159.148 43.2314C161.574 44.6706 162.897 46.6633 162.897 48.9882C162.897 50.206 162.566 51.3131 162.015 52.4201C161.353 53.4165 160.361 54.3022 159.038 54.9664C157.384 55.9628 154.738 56.4056 151.32 56.4056H142.169V43.2314H137.208V58.1769V58.2876L137.098 58.3984L136.436 58.7305V59.3947H151.43C154.407 59.3947 156.502 59.284 158.266 58.9519C160.471 58.5091 162.456 57.7341 163.999 56.627C165.653 55.5199 166.976 54.0807 167.527 52.7523C167.968 51.6452 168.299 50.5381 168.299 49.3203C168.078 48.3239 167.858 47.3276 167.748 46.5526Z" fill="white"/>
<path d="M111.189 42.235L94.7612 59.3948H102.369V58.6198H102.038H101.707H101.376L113.945 45.3349L111.189 42.235Z" fill="white"/>
<path d="M127.727 58.8412V59.6161H135.113L115.268 38.4709L112.291 41.5708L115.599 45.0027L119.017 48.4347H113.284L110.197 51.7559L110.858 52.1987L111.63 51.7559H111.74C111.74 51.7559 112.071 51.7559 112.181 51.7559H121.773L128.388 58.9519C128.388 58.9519 128.278 59.0626 127.727 59.0626H127.616V58.8412H127.727Z" fill="white"/>
<path d="M70.2854 39.3566L70.9469 38.9138V38.2495H64.3318V38.9138L64.9933 39.3566L65.3241 39.6887V58.0662V58.3983L65.2138 58.509L64.442 58.8412V59.5054H71.0571V58.8412L70.3956 58.509L70.2854 58.3983V39.6887V39.578V39.3566Z" fill="white"/>
<path d="M37.0997 55.4093H36.769H35.9972L35.1152 55.8521C35.0049 55.9628 34.7844 55.9628 34.6742 55.9628H19.5697C16.1519 55.9628 13.5059 55.52 11.8521 54.5236C9.20611 53.0844 7.99334 51.2024 7.99334 48.5454C7.99334 47.4383 8.3241 46.2205 9.09586 45.2241C10.3086 43.3421 12.1829 41.9029 14.9392 41.4601C15.7109 41.3494 16.3725 41.3494 16.8135 41.3494H24.5311C24.9721 41.3494 24.9721 41.4601 24.9721 41.4601L24.8618 42.1243H25.4131L28.7206 38.0281H19.4595C17.2545 38.0281 15.6007 38.0281 14.4982 38.1388C13.8367 38.1388 13.2854 38.2496 12.8444 38.471C11.3009 38.8031 9.86762 39.4673 8.5446 40.2423C6.11907 41.5708 4.4653 43.2314 3.58328 45.1134C3.14228 46.2205 2.81152 47.4383 2.81152 48.8775C2.81152 52.3094 4.6858 54.9664 8.21384 57.0699C9.75736 58.0663 11.6316 58.6198 13.6162 58.9519C15.1597 59.284 17.1442 59.284 19.68 59.284H33.6819L37.0997 55.4093Z" fill="white"/>
<path d="M29.4923 50.3167L32.7999 46.2205H10.8598L8.65479 49.5418H28.3898C28.7206 49.5418 28.8308 49.6525 28.8308 49.6525L28.7206 50.3167H29.4923Z" fill="white"/>
<path d="M31.1461 38.2495L28.0591 42.1243L28.7206 42.235H28.8308L29.7129 41.7922C30.0436 41.6815 30.1539 41.46 30.4846 41.46H42.6123V57.9555V58.0662L42.502 58.1769L41.8405 58.6197V59.284H48.6761V58.6197L48.0146 58.1769L47.9043 58.0662V57.9555V41.5707H58.5987C59.0397 41.5707 59.0397 41.6815 59.0397 41.6815V42.3457H59.7012L63.0088 38.2495H31.1461Z" fill="white"/>
</svg>
